<svg width="1316" height="917" viewBox="0 0 1316 917" fill="none" xmlns="http://www.w3.org/2000/svg">
<path d="M961.581 274.797L980.621 303.737L996.163 272.779L961.581 274.797ZM1048.98 311.852L1048.28 314.768L1048.98 311.852ZM1167.81 296.902L1169.62 299.291L1169.62 299.291L1167.81 296.902ZM1194.77 207.588L1197.66 206.799L1194.77 207.588ZM1123.34 216.533L1125.75 218.326L1123.34 216.533ZM1071.72 307.763L1074.45 309.004L1071.72 307.763ZM1000.17 454.702L997.518 453.298L1000.17 454.702ZM904.978 611.991L907.319 613.867L904.978 611.991ZM816.558 716.893L818.603 719.089L818.603 719.089L816.558 716.893ZM729.289 762.381L729.937 765.31L729.289 762.381ZM516.163 761.87L516.931 758.97L516.163 761.87ZM412.922 705.522L414.586 703.025L412.922 705.522ZM405 695.683L400.075 729.972L432.233 717.092L405 695.683ZM408.423 705.978C409.274 706.656 410.217 707.324 411.258 708.018L414.586 703.025C413.622 702.383 412.832 701.82 412.164 701.287L408.423 705.978ZM411.258 708.018C412.622 708.927 413.982 709.84 415.338 710.754L418.692 705.779C417.329 704.86 415.96 703.942 414.586 703.025L411.258 708.018ZM423.476 716.28C426.193 718.133 428.909 719.991 431.619 721.836L434.995 716.876C432.288 715.034 429.583 713.183 426.857 711.323L423.476 716.28ZM439.802 727.367C442.546 729.204 445.298 731.024 448.064 732.817L451.328 727.782C448.592 726.009 445.865 724.206 443.139 722.381L439.802 727.367ZM456.444 738.126C459.263 739.866 462.104 741.57 464.974 743.23L467.977 738.036C465.163 736.408 462.372 734.734 459.597 733.02L456.444 738.126ZM473.684 748.065C476.613 749.621 479.58 751.123 482.592 752.563L485.18 747.15C482.25 745.749 479.359 744.285 476.498 742.766L473.684 748.065ZM491.711 756.66C494.769 757.944 497.876 759.159 501.041 760.295L503.068 754.648C500.008 753.549 496.999 752.373 494.035 751.128L491.711 756.66ZM510.564 763.415C512.159 763.887 513.769 764.339 515.395 764.77L516.931 758.97C515.362 758.554 513.808 758.118 512.268 757.662L510.564 763.415ZM515.395 764.77C516.982 765.19 518.573 765.599 520.169 765.997L521.621 760.175C520.053 759.784 518.489 759.382 516.931 758.97L515.395 764.77ZM529.769 768.249C532.971 768.953 536.19 769.615 539.422 770.236L540.554 764.344C537.373 763.733 534.207 763.082 531.058 762.389L529.769 768.249ZM549.124 771.968C552.358 772.502 555.604 772.996 558.862 773.451L559.691 767.508C556.483 767.06 553.286 766.574 550.102 766.048L549.124 771.968ZM568.633 774.694C571.889 775.068 575.154 775.405 578.426 775.704L578.972 769.729C575.746 769.434 572.527 769.102 569.319 768.733L568.633 774.694ZM588.241 776.487C591.511 776.711 594.786 776.899 598.066 777.051L598.344 771.057C595.108 770.907 591.876 770.722 588.651 770.501L588.241 776.487ZM607.901 777.4C611.178 777.482 614.458 777.528 617.739 777.541L617.762 771.541C614.523 771.528 611.285 771.482 608.05 771.402L607.901 777.4ZM627.576 777.478C630.855 777.423 634.134 777.335 637.41 777.215L637.189 771.219C633.953 771.338 630.715 771.424 627.477 771.478L627.576 777.478ZM647.235 776.756C650.51 776.571 653.781 776.353 657.047 776.105L656.592 770.122C653.364 770.368 650.132 770.582 646.896 770.765L647.235 776.756ZM666.846 775.265C670.113 774.953 673.373 774.61 676.624 774.238L675.941 768.277C672.727 768.645 669.505 768.984 666.276 769.292L666.846 775.265ZM686.384 773.025C689.639 772.59 692.883 772.124 696.116 771.63L695.208 765.699C692.013 766.188 688.806 766.648 685.588 767.078L686.384 773.025ZM705.822 770.052C709.061 769.494 712.286 768.907 715.495 768.292L714.366 762.399C711.194 763.007 708.006 763.587 704.803 764.139L705.822 770.052ZM725.135 766.349C726.74 766.01 728.341 765.663 729.937 765.31L728.641 759.452C727.063 759.801 725.481 760.143 723.894 760.479L725.135 766.349ZM729.937 765.31C731.595 764.943 733.235 764.562 734.858 764.167L733.44 758.337C731.858 758.722 730.259 759.093 728.641 759.452L729.937 765.31ZM744.621 761.56C747.902 760.602 751.113 759.577 754.261 758.481L752.289 752.815C749.24 753.876 746.125 754.87 742.939 755.801L744.621 761.56ZM763.736 754.891C766.883 753.597 769.969 752.223 773.002 750.763L770.4 745.356C767.474 746.765 764.495 748.092 761.454 749.342L763.736 754.891ZM782.01 746.09C784.958 744.447 787.859 742.714 790.721 740.886L787.492 735.829C784.73 737.593 781.931 739.265 779.088 740.849L782.01 746.09ZM799.107 735.186C801.816 733.229 804.496 731.181 807.153 729.037L803.386 724.367C800.809 726.446 798.214 728.429 795.594 730.322L799.107 735.186ZM814.865 722.493C816.114 721.381 817.36 720.246 818.603 719.089L814.514 714.698C813.303 715.826 812.09 716.931 810.875 718.012L814.865 722.493ZM818.603 719.089C819.811 717.964 821.01 716.83 822.2 715.687L818.045 711.359C816.876 712.481 815.699 713.594 814.514 714.698L818.603 719.089ZM829.24 708.735C831.553 706.386 833.834 704.008 836.086 701.604L831.707 697.502C829.487 699.872 827.241 702.213 824.965 704.524L829.24 708.735ZM842.756 694.319C844.951 691.869 847.121 689.397 849.268 686.906L844.724 682.988C842.599 685.453 840.455 687.896 838.287 690.316L842.756 694.319ZM855.643 679.385C857.746 676.864 859.831 674.327 861.901 671.778L857.243 667.996C855.188 670.526 853.12 673.043 851.036 675.542L855.643 679.385ZM868.063 664.105C870.103 661.538 872.132 658.963 874.152 656.384L869.427 652.685C867.415 655.255 865.396 657.818 863.366 660.371L868.063 664.105ZM880.189 648.634C882.195 646.047 884.197 643.458 886.197 640.872L881.45 637.202C879.45 639.788 877.451 642.374 875.448 644.956L880.189 648.634ZM892.198 633.116C894.201 630.532 896.206 627.953 898.215 625.383L893.488 621.687C891.472 624.266 889.462 626.851 887.456 629.44L892.198 633.116ZM904.27 617.692C905.284 616.413 906.3 615.138 907.319 613.867L902.636 610.116C901.611 611.395 900.589 612.677 899.57 613.962L904.27 617.692ZM907.319 613.867C908.394 612.525 909.46 611.18 910.517 609.832L905.794 606.13C904.751 607.462 903.698 608.79 902.636 610.116L907.319 613.867ZM916.783 601.665C918.849 598.914 920.881 596.151 922.88 593.376L918.013 589.868C916.036 592.611 914.027 595.343 911.985 598.061L916.783 601.665ZM928.815 584.976C930.771 582.152 932.697 579.317 934.595 576.471L929.604 573.142C927.724 575.959 925.818 578.765 923.883 581.559L928.815 584.976ZM940.229 567.871C942.085 564.987 943.916 562.093 945.724 559.188L940.63 556.017C938.837 558.898 937.023 561.767 935.183 564.624L940.229 567.871ZM951.091 550.43C952.861 547.499 954.61 544.557 956.342 541.607L951.167 538.57C949.447 541.5 947.71 544.42 945.954 547.33L951.091 550.43ZM961.488 532.727C963.186 529.76 964.87 526.784 966.541 523.799L961.306 520.867C959.643 523.837 957.969 526.796 956.281 529.746L961.488 532.727ZM971.515 514.832C973.16 511.84 974.795 508.84 976.423 505.833L971.147 502.976C969.524 505.974 967.895 508.962 966.257 511.941L971.515 514.832ZM981.278 496.81C982.886 493.804 984.49 490.791 986.092 487.771L980.792 484.959C979.192 487.974 977.592 490.981 975.987 493.979L981.278 496.81ZM990.88 478.724C992.47 475.714 994.061 472.697 995.655 469.673L990.348 466.875C988.753 469.898 987.163 472.914 985.575 475.922L990.88 478.724ZM1000.43 460.627C1001.22 459.121 1002.02 457.614 1002.82 456.106L997.518 453.298C996.718 454.808 995.92 456.317 995.124 457.823L1000.43 460.627ZM1002.82 456.106C1003.62 454.599 1004.41 453.091 1005.21 451.582L999.899 448.788C999.107 450.292 998.314 451.795 997.518 453.298L1002.82 456.106ZM1009.95 442.517C1011.53 439.49 1013.09 436.461 1014.65 433.429L1009.31 430.686C1007.76 433.709 1006.2 436.73 1004.63 439.749L1009.95 442.517ZM1019.3 424.319C1020.85 421.278 1022.39 418.235 1023.92 415.189L1018.56 412.495C1017.03 415.533 1015.5 418.568 1013.96 421.601L1019.3 424.319ZM1028.49 406.039C1030.01 402.985 1031.52 399.929 1033.03 396.87L1027.64 394.221C1026.14 397.273 1024.63 400.322 1023.12 403.368L1028.49 406.039ZM1037.52 387.683C1039.01 384.618 1040.5 381.55 1041.98 378.48L1036.58 375.873C1035.1 378.937 1033.62 381.998 1032.13 385.056L1037.52 387.683ZM1046.41 369.26C1047.88 366.185 1049.34 363.107 1050.8 360.026L1045.38 357.457C1043.92 360.532 1042.46 363.604 1041 366.673L1046.41 369.26ZM1055.17 350.777C1056.61 347.692 1058.06 344.605 1059.5 341.515L1054.06 338.98C1052.62 342.065 1051.18 345.147 1049.73 348.226L1055.17 350.777ZM1063.8 332.24C1065.23 329.147 1066.66 326.052 1068.08 322.954L1062.63 320.45C1061.21 323.544 1059.78 326.634 1058.36 329.722L1063.8 332.24ZM1072.34 313.656C1073.04 312.106 1073.75 310.556 1074.45 309.004L1068.99 306.521C1068.29 308.071 1067.58 309.619 1066.88 311.167L1072.34 313.656ZM1074.45 309.004C1075.18 307.412 1075.9 305.824 1076.63 304.242L1071.18 301.731C1070.45 303.324 1069.72 304.921 1068.99 306.521L1074.45 309.004ZM1081.07 294.76C1082.57 291.602 1084.08 288.464 1085.62 285.345L1080.24 282.692C1078.69 285.839 1077.16 289.003 1075.65 292.185L1081.07 294.76ZM1090.32 276.009C1091.91 272.908 1093.53 269.827 1095.18 266.767L1089.9 263.919C1088.23 267.016 1086.6 270.131 1084.98 273.264L1090.32 276.009ZM1100.24 257.635C1101.95 254.612 1103.71 251.61 1105.5 248.628L1100.35 245.539C1098.54 248.564 1096.76 251.609 1095.02 254.671L1100.24 257.635ZM1110.98 239.762C1112.84 236.84 1114.75 233.938 1116.7 231.056L1111.73 227.69C1109.75 230.62 1107.81 233.57 1105.92 236.539L1110.98 239.762ZM1122.67 222.523C1123.68 221.119 1124.71 219.72 1125.75 218.326L1120.94 214.739C1119.88 216.158 1118.83 217.582 1117.8 219.01L1122.67 222.523ZM1125.75 218.326C1126.81 216.905 1127.94 215.456 1129.13 214.011L1124.51 210.186C1123.25 211.716 1122.05 213.245 1120.94 214.739L1125.75 218.326ZM1136.57 206.065C1139.24 203.581 1142.06 201.346 1145 199.546L1141.87 194.429C1138.51 196.483 1135.37 198.982 1132.48 201.674L1136.57 206.065ZM1154.44 195.56C1156.07 195.194 1157.72 195 1159.37 195V189C1157.25 189 1155.16 189.25 1153.13 189.706L1154.44 195.56ZM1159.37 195C1161.02 195 1162.75 195.007 1164.53 195.052L1164.68 189.053C1162.82 189.007 1161.04 189 1159.37 189V195ZM1174.54 195.885C1177.89 196.43 1181 197.293 1183.66 198.622L1186.34 193.256C1182.97 191.569 1179.22 190.568 1175.5 189.963L1174.54 195.885ZM1190.16 204.357C1190.87 205.513 1191.45 206.841 1191.87 208.378L1197.66 206.799C1197.1 204.737 1196.3 202.882 1195.28 201.223L1190.16 204.357ZM1191.87 208.378C1192.29 209.887 1192.65 211.421 1192.97 212.976L1198.85 211.769C1198.5 210.092 1198.11 208.434 1197.66 206.799L1191.87 208.378ZM1194.32 222.367C1194.59 225.499 1194.69 228.679 1194.62 231.878L1200.62 232.009C1200.69 228.601 1200.59 225.206 1200.3 221.854L1194.32 222.367ZM1193.92 241.385C1193.53 244.536 1192.98 247.675 1192.27 250.776L1198.12 252.114C1198.87 248.816 1199.46 245.478 1199.88 242.127L1193.92 241.385ZM1189.67 259.943C1188.64 262.962 1187.45 265.912 1186.12 268.765L1191.55 271.31C1192.98 268.253 1194.25 265.099 1195.35 261.878L1189.67 259.943ZM1181.6 277.096C1179.92 279.793 1178.08 282.357 1176.09 284.759L1180.72 288.583C1182.88 285.965 1184.87 283.184 1186.69 280.272L1181.6 277.096ZM1169.6 291.535C1168.44 292.578 1167.23 293.572 1165.99 294.513L1169.62 299.291C1170.99 298.25 1172.32 297.153 1173.6 296.005L1169.6 291.535ZM1165.99 294.513C1164.71 295.491 1163.37 296.428 1161.98 297.325L1165.24 302.361C1166.75 301.386 1168.21 300.363 1169.62 299.291L1165.99 294.513ZM1153.36 302.129C1150.43 303.533 1147.36 304.799 1144.18 305.933L1146.19 311.586C1149.55 310.387 1152.82 309.042 1155.96 307.541L1153.36 302.129ZM1134.62 308.861C1131.43 309.696 1128.15 310.418 1124.82 311.031L1125.91 316.932C1129.37 316.293 1132.79 315.541 1136.14 314.666L1134.62 308.861ZM1114.87 312.532C1111.54 312.928 1108.19 313.226 1104.83 313.433L1105.19 319.422C1108.67 319.208 1112.14 318.9 1115.58 318.49L1114.87 312.532ZM1094.73 313.785C1091.34 313.815 1087.97 313.757 1084.63 313.618L1084.38 319.613C1087.82 319.756 1091.29 319.816 1094.79 319.785L1094.73 313.785ZM1074.55 312.946C1071.13 312.631 1067.77 312.233 1064.51 311.759L1063.65 317.696C1067.02 318.186 1070.47 318.596 1074 318.92L1074.55 312.946ZM1054.58 310.025C1052.91 309.681 1051.27 309.317 1049.68 308.935L1048.28 314.768C1049.94 315.167 1051.64 315.545 1053.37 315.902L1054.58 310.025ZM1049.68 308.935C1048.16 308.57 1046.65 308.185 1045.15 307.781L1043.59 313.576C1045.15 313.993 1046.71 314.392 1048.28 314.768L1049.68 308.935ZM1036.16 305.131C1033.18 304.178 1030.22 303.157 1027.28 302.077L1025.21 307.71C1028.23 308.816 1031.27 309.865 1034.33 310.845L1036.16 305.131ZM1018.5 298.681C1015.59 297.5 1012.7 296.27 1009.82 295.002L1007.4 300.494C1010.33 301.782 1013.28 303.034 1016.24 304.239L1018.5 298.681ZM1001.21 291.096C998.356 289.763 995.509 288.4 992.67 287.018L990.044 292.413C992.906 293.806 995.783 295.183 998.675 296.533L1001.21 291.096ZM984.167 282.818C981.33 281.4 978.502 279.973 975.679 278.546L972.972 283.901C975.797 285.329 978.635 286.761 981.484 288.185L984.167 282.818Z" fill="black" fill-opacity="0.05"/>
<path d="M-41 239.38L-10.5193 255.84L-11.505 221.213L-41 239.38ZM129.151 205.256L130.442 207.963L129.151 205.256ZM207.464 143.139L210.117 144.54L207.464 143.139ZM210.767 45.6408L208.201 47.1957L208.201 47.1957L210.767 45.6408ZM54.6116 31.016L56.6818 33.1872L54.6116 31.016ZM36.6844 134.648L33.878 135.708L36.6844 134.648ZM113.583 246.457L115.462 244.118L115.462 244.118L113.583 246.457ZM198.029 286.242L197.478 289.191L198.029 286.242ZM312.511 285.613L311.656 282.738L312.511 285.613ZM522.291 145.813L520.487 143.416L522.291 145.813ZM598.717 128.357L599.581 125.485L598.717 128.357ZM694.643 120.652L694.568 117.653L694.643 120.652ZM814.472 180.252L811.754 181.521L811.754 181.521L814.472 180.252ZM841.835 284.827L838.838 284.957L841.835 284.827ZM843.879 368.015L846.815 367.401L843.879 368.015ZM879.576 443.184L877.146 444.943L879.576 443.184ZM1254 515.05L1253.59 512.078L1254 515.05ZM1315.23 483.157L1280.68 485.72L1300.18 514.356L1315.23 483.157ZM-26.3065 241.884C-23.0514 241.747 -19.8039 241.59 -16.5639 241.411L-16.8944 235.42C-20.1072 235.597 -23.3291 235.753 -26.56 235.89L-26.3065 241.884ZM-6.82458 240.804C-3.57236 240.578 -0.32765 240.327 2.90953 240.049L2.39646 234.071C-0.807149 234.346 -4.01977 234.595 -7.24152 234.819L-6.82458 240.804ZM12.6355 239.129C15.8802 238.792 19.1174 238.426 22.347 238.028L21.6126 232.073C18.423 232.466 15.2244 232.828 12.0166 233.161L12.6355 239.129ZM32.0388 236.73C35.2683 236.263 38.4902 235.761 41.7046 235.221L40.711 229.304C37.5428 229.836 34.3656 230.331 31.1794 230.792L32.0388 236.73ZM51.3374 233.484C54.5419 232.866 57.7388 232.208 60.9282 231.507L59.6405 225.647C56.5028 226.336 53.3563 226.984 50.2009 227.593L51.3374 233.484ZM70.4672 229.276C73.6338 228.49 76.7929 227.658 79.9445 226.78L78.3331 221C75.2376 221.863 72.1336 222.68 69.0209 223.453L70.4672 229.276ZM89.3493 224.008C92.4631 223.039 95.5693 222.022 98.6681 220.952L96.7113 215.28C93.6715 216.329 90.6235 217.328 87.5673 218.278L89.3493 224.008ZM107.889 217.608C110.934 216.449 113.971 215.238 117.001 213.972L114.687 208.436C111.717 209.677 108.74 210.865 105.754 212.001L107.889 217.608ZM125.994 210.04C127.478 209.362 128.961 208.67 130.442 207.963L127.86 202.548C126.409 203.24 124.956 203.918 123.501 204.582L125.994 210.04ZM130.442 207.963C131.969 207.235 133.504 206.498 135.044 205.752L132.425 200.353C130.9 201.093 129.377 201.824 127.86 202.548L130.442 207.963ZM144.212 201.196C147.243 199.648 150.275 198.051 153.287 196.396L150.398 191.137C147.446 192.759 144.469 194.327 141.483 195.852L144.212 201.196ZM162.213 191.266C165.159 189.49 168.069 187.645 170.924 185.721L167.571 180.746C164.809 182.607 161.984 184.398 159.115 186.127L162.213 191.266ZM179.337 179.675C182.088 177.562 184.765 175.356 187.346 173.047L183.347 168.575C180.885 170.776 178.325 172.887 175.682 174.918L179.337 179.675ZM194.82 165.766C197.204 163.226 199.472 160.571 201.603 157.79L196.84 154.14C194.838 156.754 192.7 159.257 190.445 161.66L194.82 165.766ZM207.526 149.121C208.429 147.627 209.293 146.1 210.117 144.54L204.812 141.739C204.042 143.195 203.235 144.621 202.391 146.017L207.526 149.121ZM210.117 144.54C210.916 143.028 211.686 141.465 212.426 139.858L206.976 137.348C206.28 138.861 205.557 140.326 204.812 141.739L210.117 144.54ZM216.321 130.207C217.447 127.006 218.463 123.69 219.355 120.293L213.552 118.768C212.7 122.013 211.732 125.173 210.661 128.216L216.321 130.207ZM221.597 110.181C222.212 106.801 222.704 103.373 223.059 99.9271L217.091 99.3109C216.751 102.6 216.282 105.875 215.694 109.107L221.597 110.181ZM223.708 89.5762C223.782 86.0916 223.706 82.6163 223.467 79.1815L217.482 79.5977C217.707 82.8416 217.78 86.1353 217.709 89.4487L223.708 89.5762ZM222.212 68.8187C221.597 65.3287 220.786 61.9135 219.763 58.6114L214.031 60.3875C214.974 63.4294 215.728 66.5979 216.303 69.8603L222.212 68.8187ZM215.884 48.7645C215.099 47.161 214.25 45.5993 213.332 44.0859L208.201 47.1957C209.021 48.5492 209.785 49.9526 210.494 51.4016L215.884 48.7645ZM213.332 44.0859C212.441 42.6149 211.512 41.1815 210.548 39.7854L205.611 43.1947C206.507 44.493 207.371 45.8266 208.201 47.1957L213.332 44.0859ZM204.239 31.727C201.962 29.1524 199.55 26.7386 197.019 24.4843L193.028 28.9644C195.384 31.0632 197.628 33.3088 199.745 35.7023L204.239 31.727ZM189.008 18.1422C186.219 16.1829 183.325 14.3864 180.344 12.7507L177.458 18.0108C180.25 19.543 182.956 21.2231 185.56 23.0522L189.008 18.1422ZM171.166 8.32845C168.043 7.01853 164.849 5.86587 161.601 4.86856L159.84 10.6042C162.903 11.5447 165.91 12.6303 168.846 13.8616L171.166 8.32845ZM151.761 2.35057C148.454 1.66711 145.109 1.134 141.741 0.74953L141.06 6.7108C144.252 7.07517 147.419 7.58005 150.546 8.22641L151.761 2.35057ZM131.628 0.0414579C128.254 -0.0480134 124.873 0.00748123 121.498 0.206506L121.851 6.1961C125.056 6.00708 128.267 5.95443 131.469 6.03935L131.628 0.0414579ZM111.419 1.23156C108.073 1.71601 104.749 2.3427 101.462 3.11043L102.826 8.95323C105.946 8.2247 109.102 7.6297 112.279 7.16962L111.419 1.23156ZM91.6996 5.84334C88.4794 6.89945 85.3106 8.0975 82.2087 9.43645L84.5866 14.9451C87.5191 13.6793 90.5183 12.5452 93.5694 11.5446L91.6996 5.84334ZM73.0805 13.8964C70.1036 15.5312 67.2101 17.3086 64.4163 19.2276L67.8134 24.1733C70.4388 22.3699 73.1621 20.6968 75.9686 19.1555L73.0805 13.8964ZM56.3297 25.4259C55.037 26.5302 53.7736 27.6698 52.5414 28.8447L56.6818 33.1872C57.834 32.0886 59.0163 31.0221 60.2269 29.9879L56.3297 25.4259ZM52.5414 28.8447C51.3784 29.9536 50.2595 31.1168 49.184 32.3293L53.6727 36.3107C54.6413 35.2186 55.6444 34.1763 56.6818 33.1872L52.5414 28.8447ZM43.3618 39.9829C41.64 42.6143 40.0684 45.3921 38.6434 48.2847L44.0257 50.9362C45.3512 48.2456 46.8036 45.6811 48.3825 43.268L43.3618 39.9829ZM34.9051 57.0036C33.8196 59.9325 32.8611 62.942 32.0274 66.0073L37.8171 67.5819C38.6063 64.6802 39.5109 61.8414 40.5311 59.0888L34.9051 57.0036ZM29.9263 75.1952C29.3496 78.2725 28.8891 81.3824 28.5433 84.5023L34.5068 85.1633C34.8365 82.1887 35.2752 79.227 35.8236 76.3004L29.9263 75.1952ZM27.8477 93.8783C27.7283 97.032 27.7244 100.175 27.835 103.285L33.8312 103.071C33.7259 100.11 33.7295 97.1136 33.8434 94.1053L27.8477 93.8783ZM28.5294 112.672C28.8909 115.853 29.3787 118.973 29.9922 122.006L35.873 120.816C35.2954 117.961 34.8339 115.012 34.491 111.995L28.5294 112.672ZM32.331 131.203C32.8089 132.739 33.3245 134.243 33.878 135.708L39.4908 133.587C38.9814 132.239 38.5043 130.849 38.0602 129.421L32.331 131.203ZM33.878 135.708C34.4565 137.239 35.0543 138.777 35.6711 140.322L41.2431 138.096C40.64 136.586 40.0558 135.083 39.4908 133.587L33.878 135.708ZM39.5071 149.448C40.8241 152.435 42.207 155.434 43.6523 158.437L49.0587 155.835C47.6418 152.891 46.2868 149.952 44.997 147.027L39.5071 149.448ZM48.0839 167.28C49.5984 170.185 51.1686 173.087 52.7914 175.976L58.0227 173.038C56.4306 170.203 54.8902 167.357 53.4045 164.506L48.0839 167.28ZM57.769 184.522C59.4697 187.34 61.219 190.138 63.0138 192.909L68.0495 189.647C66.2897 186.93 64.5741 184.186 62.9058 181.422L57.769 184.522ZM68.5277 201.124C70.4154 203.839 72.3462 206.518 74.3174 209.154L79.1227 205.561C77.1937 202.981 75.3031 200.358 73.4537 197.699L68.5277 201.124ZM80.3919 216.979C82.4777 219.566 84.6027 222.1 86.7638 224.574L91.2821 220.626C89.1747 218.214 87.1005 215.74 85.0625 213.213L80.3919 216.979ZM93.4508 231.906C95.7585 234.327 98.1022 236.675 100.479 238.939L104.618 234.595C102.314 232.4 100.038 230.121 97.794 227.766L93.4508 231.906ZM107.866 245.614C109.137 246.699 110.416 247.76 111.703 248.795L115.462 244.118C114.223 243.123 112.99 242.1 111.764 241.052L107.866 245.614ZM111.703 248.795C112.946 249.794 114.199 250.779 115.462 251.749L119.118 246.992C117.889 246.048 116.671 245.09 115.462 244.118L111.703 248.795ZM123.173 257.406C125.787 259.236 128.442 261.005 131.134 262.71L134.345 257.642C131.731 255.986 129.153 254.268 126.612 252.49L123.173 257.406ZM139.336 267.642C142.11 269.222 144.92 270.736 147.766 272.18L150.481 266.829C147.723 265.429 144.997 263.961 142.305 262.428L139.336 267.642ZM156.41 276.303C159.325 277.605 162.273 278.835 165.253 279.99L167.421 274.395C164.536 273.278 161.682 272.087 158.858 270.825L156.41 276.303ZM174.276 283.222C177.307 284.22 180.368 285.14 183.457 285.98L185.031 280.19C182.044 279.378 179.084 278.488 176.152 277.523L174.276 283.222ZM192.775 288.246C194.336 288.582 195.904 288.897 197.478 289.191L198.58 283.293C197.06 283.009 195.545 282.705 194.036 282.38L192.775 288.246ZM197.478 289.191C199.046 289.484 200.636 289.77 202.246 290.049L203.268 284.136C201.684 283.863 200.121 283.581 198.58 283.293L197.478 289.191ZM211.828 291.573C214.981 292.032 218.192 292.457 221.447 292.843L222.153 286.884C218.952 286.505 215.794 286.087 212.692 285.635L211.828 291.573ZM231.094 293.854C234.295 294.145 237.526 294.395 240.773 294.598L241.147 288.609C237.958 288.41 234.784 288.165 231.638 287.879L231.094 293.854ZM250.475 295.056C253.712 295.158 256.956 295.209 260.194 295.204L260.185 289.204C257.016 289.209 253.839 289.159 250.665 289.059L250.475 295.056ZM269.924 295.012C273.187 294.886 276.435 294.696 279.653 294.436L279.172 288.456C276.041 288.708 272.877 288.893 269.692 289.016L269.924 295.012ZM289.363 293.425C292.634 293.004 295.862 292.5 299.033 291.909L297.934 286.011C294.88 286.58 291.763 287.066 288.595 287.475L289.363 293.425ZM308.624 289.799C310.225 289.389 311.806 288.953 313.366 288.489L311.656 282.738C310.172 283.179 308.665 283.595 307.135 283.987L308.624 289.799ZM313.366 288.489C314.946 288.019 316.52 287.532 318.089 287.028L316.254 281.316C314.726 281.807 313.193 282.281 311.656 282.738L313.366 288.489ZM327.432 283.808C330.517 282.673 333.583 281.474 336.629 280.216L334.339 274.67C331.363 275.899 328.37 277.07 325.36 278.177L327.432 283.808ZM345.676 276.286C348.66 274.925 351.626 273.51 354.575 272.045L351.905 266.672C349.014 268.109 346.108 269.494 343.187 270.826L345.676 276.286ZM363.328 267.525C366.214 265.979 369.083 264.387 371.936 262.754L368.955 257.547C366.149 259.154 363.329 260.718 360.495 262.236L363.328 267.525ZM380.405 257.76C383.2 256.064 385.98 254.33 388.746 252.564L385.516 247.507C382.787 249.251 380.046 250.959 377.293 252.63L380.405 257.76ZM396.966 247.189C399.682 245.374 402.384 243.529 405.074 241.658L401.648 236.732C398.987 238.583 396.315 240.407 393.632 242.201L396.966 247.189ZM413.076 235.991C415.725 234.084 418.362 232.154 420.987 230.205L417.41 225.388C414.807 227.32 412.193 229.233 409.57 231.123L413.076 235.991ZM428.815 224.317C431.41 222.34 433.995 220.347 436.57 218.342L432.884 213.608C430.325 215.601 427.756 217.58 425.179 219.544L428.815 224.317ZM444.263 212.298C446.82 210.271 449.368 208.236 451.906 206.196L448.147 201.52C445.618 203.552 443.081 205.579 440.537 207.595L444.263 212.298ZM459.508 200.053C462.04 197.997 464.564 195.939 467.079 193.883L463.282 189.237C460.77 191.29 458.251 193.344 455.725 195.395L459.508 200.053ZM474.631 187.699C477.155 185.631 479.669 183.569 482.178 181.515L478.376 176.873C475.866 178.928 473.35 180.992 470.828 183.059L474.631 187.699ZM489.731 175.344C492.26 173.284 494.783 171.236 497.299 169.205L493.531 164.536C491.006 166.574 488.476 168.628 485.941 170.693L489.731 175.344ZM504.894 163.114C507.445 161.083 509.991 159.073 512.531 157.087L508.836 152.36C506.28 154.358 503.72 156.379 501.156 158.42L504.894 163.114ZM520.229 151.139C521.519 150.155 522.807 149.178 524.094 148.21L520.487 143.416C519.188 144.393 517.889 145.377 516.59 146.369L520.229 151.139ZM524.094 148.21C525.586 147.087 527.007 146.003 528.362 144.958L524.698 140.206C523.359 141.239 521.958 142.309 520.487 143.416L524.094 148.21ZM536.734 138.395C539.86 135.924 542.557 133.801 545.037 131.987L541.495 127.144C538.909 129.035 536.123 131.23 533.013 133.688L536.734 138.395ZM553.539 126.702C556.449 125.33 559.327 124.53 562.666 124.279L562.217 118.296C558.11 118.604 554.52 119.606 550.98 121.275L553.539 126.702ZM572.541 124.844C575.493 125.303 578.821 126.006 582.659 126.966L584.116 121.146C580.164 120.157 576.649 119.41 573.462 118.915L572.541 124.844ZM592.77 129.726C594.393 130.197 596.085 130.698 597.853 131.23L599.581 125.485C597.799 124.948 596.087 124.441 594.442 123.964L592.77 129.726ZM597.853 131.23C599.5 131.726 601.107 132.189 602.676 132.62L604.267 126.835C602.746 126.416 601.185 125.967 599.581 125.485L597.853 131.23ZM612.427 135.011C615.944 135.761 619.246 136.334 622.359 136.75L623.155 130.803C620.205 130.409 617.055 129.863 613.678 129.143L612.427 135.011ZM632.503 137.604C636.191 137.715 639.582 137.582 642.741 137.26L642.133 131.291C639.242 131.586 636.115 131.71 632.684 131.606L632.503 137.604ZM652.87 135.471C656.355 134.591 659.546 133.514 662.574 132.384L660.475 126.763C657.571 127.847 654.602 128.846 651.401 129.654L652.87 135.471ZM671.788 128.775C674.757 127.626 677.705 126.566 680.831 125.709L679.244 119.923C675.835 120.858 672.673 121.999 669.622 123.18L671.788 128.775ZM690.027 123.955C691.524 123.797 693.084 123.692 694.718 123.651L694.568 117.653C692.772 117.698 691.051 117.813 689.394 117.989L690.027 123.955ZM694.718 123.651C696.446 123.608 698.155 123.572 699.846 123.546L699.752 117.547C698.041 117.573 696.313 117.609 694.568 117.653L694.718 123.651ZM710.081 123.505C713.568 123.537 716.97 123.621 720.289 123.767L720.553 117.773C717.155 117.623 713.683 117.538 710.136 117.505L710.081 123.505ZM730.44 124.444C733.887 124.759 737.234 125.163 740.487 125.669L741.408 119.74C738.018 119.213 734.545 118.795 730.988 118.469L730.44 124.444ZM750.359 127.596C753.671 128.388 756.873 129.315 759.971 130.393L761.943 124.727C758.641 123.577 755.245 122.595 751.755 121.761L750.359 127.596ZM769.163 134.199C772.135 135.645 775.007 137.271 777.784 139.097L781.08 134.084C778.082 132.113 774.985 130.359 771.787 128.804L769.163 134.199ZM785.691 145.073C788.136 147.182 790.505 149.49 792.801 152.015L797.24 147.979C794.786 145.279 792.244 142.802 789.61 140.53L785.691 145.073ZM799.114 159.768C801.017 162.368 802.866 165.152 804.663 168.133L809.802 165.035C807.918 161.91 805.97 158.977 803.956 156.224L799.114 159.768ZM809.539 176.965C810.287 178.443 811.026 179.962 811.754 181.521L817.19 178.982C816.436 177.367 815.67 175.791 814.891 174.255L809.539 176.965ZM811.754 181.521C812.514 183.149 813.262 184.783 813.998 186.425L819.473 183.971C818.725 182.301 817.963 180.638 817.19 178.982L811.754 181.521ZM818.249 196.333C819.611 199.656 820.92 203.003 822.17 206.373L827.795 204.285C826.521 200.851 825.188 197.441 823.801 194.057L818.249 196.333ZM825.741 216.536C826.871 219.944 827.939 223.372 828.941 226.818L834.702 225.142C833.679 221.624 832.589 218.125 831.436 214.649L825.741 216.536ZM831.746 237.207C832.613 240.689 833.411 244.186 834.134 247.695L840.01 246.484C839.27 242.893 838.455 239.316 837.568 235.757L831.746 237.207ZM836.079 258.267C836.651 261.805 837.144 265.352 837.555 268.908L843.516 268.219C843.094 264.571 842.588 260.934 842.002 257.309L836.079 258.267ZM838.539 279.599C838.66 281.384 838.76 283.17 838.838 284.957L844.832 284.697C844.752 282.86 844.65 281.025 844.525 279.192L838.539 279.599ZM838.838 284.957C838.911 286.656 838.962 288.367 838.993 290.089L844.992 289.982C844.96 288.214 844.908 286.452 844.832 284.697L838.838 284.957ZM838.979 300.406C838.919 303.837 838.817 307.295 838.702 310.778L844.698 310.977C844.814 307.483 844.918 303.988 844.978 300.51L838.979 300.406ZM838.351 321.2C838.242 324.684 838.15 328.182 838.108 331.678L844.108 331.75C844.149 328.308 844.239 324.853 844.348 321.388L838.351 321.2ZM838.161 342.212C838.25 345.748 838.422 349.278 838.709 352.789L844.689 352.299C844.413 348.92 844.246 345.505 844.159 342.061L838.161 342.212ZM839.972 363.367C840.255 365.129 840.577 366.884 840.943 368.63L846.815 367.401C846.47 365.752 846.165 364.089 845.896 362.415L839.972 363.367ZM840.943 368.63C841.308 370.376 841.706 372.114 842.135 373.844L847.958 372.401C847.547 370.74 847.165 369.073 846.815 367.401L840.943 368.63ZM845.062 384.116C846.151 387.499 847.351 390.847 848.65 394.159L854.235 391.967C852.98 388.767 851.822 385.536 850.774 382.278L845.062 384.116ZM852.821 403.954C854.3 407.175 855.866 410.357 857.508 413.496L862.825 410.716C861.229 407.663 859.708 404.573 858.274 401.45L852.821 403.954ZM862.648 422.785C864.434 425.845 866.284 428.86 868.188 431.827L873.238 428.587C871.377 425.688 869.571 422.745 867.83 419.761L862.648 422.785ZM874.08 440.629C875.092 442.08 876.115 443.518 877.146 444.943L882.006 441.424C880.995 440.028 879.993 438.619 879.002 437.198L874.08 440.629ZM877.146 444.943C878.166 446.352 879.202 447.736 880.253 449.096L885.001 445.427C883.988 444.116 882.989 442.782 882.006 441.424L877.146 444.943ZM886.82 457.062C889.113 459.67 891.467 462.18 893.88 464.594L898.124 460.353C895.801 458.028 893.534 455.612 891.327 453.101L886.82 457.062ZM901.419 471.669C904.019 473.957 906.676 476.148 909.388 478.246L913.06 473.501C910.447 471.479 907.887 469.368 905.383 467.164L901.419 471.669ZM917.743 484.309C920.593 486.247 923.494 488.095 926.442 489.855L929.518 484.703C926.669 483.002 923.868 481.218 921.117 479.348L917.743 484.309ZM935.44 494.888C938.481 496.48 941.565 497.989 944.688 499.42L947.187 493.965C944.157 492.577 941.168 491.114 938.222 489.572L935.44 494.888ZM954.147 503.471C957.325 504.741 960.537 505.938 963.779 507.066L965.75 501.399C962.591 500.3 959.464 499.135 956.374 497.9L954.147 503.471ZM973.546 510.232C976.813 511.217 980.106 512.138 983.422 513L984.931 507.192C981.687 506.349 978.468 505.449 975.277 504.487L973.546 510.232ZM993.386 515.399C996.712 516.14 1000.06 516.826 1003.42 517.462L1004.53 511.566C1001.23 510.942 997.951 510.269 994.69 509.543L993.386 515.399ZM1013.5 519.215C1016.86 519.75 1020.23 520.24 1023.61 520.688L1024.4 514.74C1021.07 514.298 1017.75 513.816 1014.44 513.29L1013.5 519.215ZM1033.75 521.907C1037.14 522.275 1040.52 522.604 1043.91 522.9L1044.43 516.922C1041.08 516.63 1037.74 516.305 1034.4 515.942L1033.75 521.907ZM1054.08 523.689C1057.48 523.921 1060.87 524.123 1064.26 524.299L1064.57 518.307C1061.21 518.133 1057.85 517.933 1054.49 517.703L1054.08 523.689ZM1074.43 524.752C1077.84 524.88 1081.23 524.984 1084.61 525.07L1084.76 519.072C1081.4 518.987 1078.03 518.883 1074.66 518.756L1074.43 524.752ZM1094.78 525.275C1098.19 525.328 1101.58 525.365 1104.94 525.39L1104.99 519.39C1101.63 519.365 1098.26 519.328 1094.87 519.276L1094.78 525.275ZM1115.11 525.436C1116.81 525.439 1118.5 525.441 1120.18 525.441V519.441C1118.5 519.441 1116.81 519.439 1115.12 519.436L1115.11 525.436ZM1120.18 525.441C1121.78 525.441 1123.38 525.439 1124.97 525.436L1124.96 519.436C1123.37 519.439 1121.77 519.441 1120.18 519.441V525.441ZM1134.57 525.393C1137.77 525.37 1140.97 525.34 1144.17 525.299L1144.09 519.3C1140.9 519.34 1137.72 519.371 1134.53 519.393L1134.57 525.393ZM1153.77 525.147C1156.97 525.086 1160.17 525.014 1163.37 524.929L1163.21 518.931C1160.02 519.015 1156.84 519.087 1153.65 519.148L1153.77 525.147ZM1172.97 524.636C1176.17 524.526 1179.37 524.401 1182.57 524.262L1182.31 518.267C1179.13 518.406 1175.95 518.53 1172.76 518.64L1172.97 524.636ZM1192.17 523.797C1195.37 523.626 1198.57 523.438 1201.77 523.233L1201.38 517.246C1198.21 517.449 1195.03 517.635 1191.85 517.805L1192.17 523.797ZM1211.36 522.564C1214.56 522.322 1217.75 522.061 1220.94 521.78L1220.42 515.803C1217.25 516.082 1214.08 516.341 1210.91 516.581L1211.36 522.564ZM1230.52 520.874C1233.71 520.551 1236.9 520.206 1240.09 519.838L1239.4 513.877C1236.24 514.242 1233.08 514.584 1229.92 514.905L1230.52 520.874ZM1249.64 518.663C1251.23 518.455 1252.82 518.241 1254.41 518.021L1253.59 512.078C1252.02 512.296 1250.44 512.508 1248.87 512.714L1249.64 518.663ZM1254.41 518.021C1256.4 517.746 1258.41 517.337 1260.43 516.811L1258.93 511.003C1257.1 511.478 1255.32 511.839 1253.59 512.078L1254.41 518.021ZM1271.8 512.816C1275.29 511.304 1278.85 509.538 1282.44 507.582L1279.58 502.311C1276.1 504.2 1272.71 505.883 1269.42 507.309L1271.8 512.816ZM1292.6 501.67C1295.86 499.669 1299.15 497.558 1302.45 495.381L1299.16 490.369C1295.88 492.522 1292.65 494.599 1289.46 496.56L1292.6 501.67Z" fill="black" fill-opacity="0.05"/>
<path d="M-334 630.38L-303.519 646.84L-304.505 612.213L-334 630.38ZM-163.849 596.256L-162.558 598.963L-163.849 596.256ZM-85.5356 534.139L-82.8828 535.54L-85.5356 534.139ZM-82.2333 436.641L-84.7989 438.196L-84.7989 438.196L-82.2333 436.641ZM-238.388 422.016L-236.318 424.187L-238.388 422.016ZM-256.316 525.648L-259.122 526.708L-256.316 525.648ZM-179.417 637.457L-177.538 635.118L-177.538 635.118L-179.417 637.457ZM-94.971 677.242L-95.5221 680.191L-94.971 677.242ZM19.5113 676.613L18.6564 673.738L19.5113 676.613ZM229.291 536.813L227.487 534.416L229.291 536.813ZM305.717 519.357L306.581 516.485L305.717 519.357ZM401.643 511.652L401.568 508.653L401.643 511.652ZM521.472 571.252L518.754 572.521L518.754 572.521L521.472 571.252ZM548.835 675.827L545.838 675.957L548.835 675.827ZM550.879 759.015L553.815 758.401L550.879 759.015ZM586.576 834.184L584.146 835.943L586.576 834.184ZM961.002 906.05L960.591 903.078L961.002 906.05ZM1022.23 874.157L987.684 876.72L1007.18 905.356L1022.23 874.157ZM-319.306 632.884C-316.051 632.747 -312.804 632.59 -309.564 632.411L-309.894 626.42C-313.107 626.597 -316.329 626.753 -319.56 626.89L-319.306 632.884ZM-299.825 631.804C-296.572 631.578 -293.328 631.327 -290.09 631.049L-290.604 625.071C-293.807 625.346 -297.02 625.595 -300.242 625.819L-299.825 631.804ZM-280.364 630.129C-277.12 629.792 -273.883 629.426 -270.653 629.028L-271.387 623.073C-274.577 623.466 -277.776 623.828 -280.983 624.161L-280.364 630.129ZM-260.961 627.73C-257.732 627.263 -254.51 626.761 -251.295 626.221L-252.289 620.304C-255.457 620.836 -258.634 621.331 -261.821 621.792L-260.961 627.73ZM-241.663 624.484C-238.458 623.866 -235.261 623.208 -232.072 622.507L-233.36 616.647C-236.497 617.336 -239.644 617.984 -242.799 618.593L-241.663 624.484ZM-222.533 620.276C-219.366 619.49 -216.207 618.658 -213.056 617.78L-214.667 612C-217.762 612.863 -220.866 613.68 -223.979 614.453L-222.533 620.276ZM-203.651 615.008C-200.537 614.039 -197.431 613.022 -194.332 611.952L-196.289 606.28C-199.328 607.329 -202.376 608.328 -205.433 609.278L-203.651 615.008ZM-185.111 608.608C-182.066 607.449 -179.029 606.238 -175.999 604.972L-178.313 599.436C-181.283 600.677 -184.26 601.865 -187.246 603.001L-185.111 608.608ZM-167.006 601.04C-165.522 600.362 -164.039 599.67 -162.558 598.963L-165.14 593.548C-166.591 594.24 -168.044 594.918 -169.499 595.582L-167.006 601.04ZM-162.558 598.963C-161.031 598.235 -159.496 597.498 -157.956 596.752L-160.575 591.353C-162.1 592.093 -163.623 592.824 -165.14 593.548L-162.558 598.963ZM-148.788 592.196C-145.757 590.648 -142.725 589.051 -139.713 587.396L-142.602 582.137C-145.554 583.759 -148.531 585.327 -151.517 586.852L-148.788 592.196ZM-130.787 582.266C-127.841 580.49 -124.931 578.645 -122.076 576.721L-125.429 571.746C-128.191 573.607 -131.016 575.398 -133.885 577.127L-130.787 582.266ZM-113.663 570.675C-110.912 568.562 -108.235 566.356 -105.654 564.047L-109.653 559.575C-112.115 561.776 -114.675 563.887 -117.318 565.918L-113.663 570.675ZM-98.1799 556.766C-95.7961 554.226 -93.5283 551.571 -91.3973 548.79L-96.16 545.14C-98.1623 547.754 -100.3 550.257 -102.555 552.66L-98.1799 556.766ZM-85.4741 540.121C-84.5713 538.627 -83.7067 537.1 -82.8828 535.54L-88.1885 532.739C-88.9575 534.195 -89.7651 535.621 -90.6091 537.017L-85.4741 540.121ZM-82.8828 535.54C-82.084 534.028 -81.3137 532.465 -80.5738 530.858L-86.0237 528.348C-86.7202 529.861 -87.4426 531.326 -88.1885 532.739L-82.8828 535.54ZM-76.6788 521.207C-75.5525 518.006 -74.5372 514.69 -73.645 511.293L-79.4482 509.768C-80.3002 513.013 -81.268 516.173 -82.3386 519.216L-76.6788 521.207ZM-71.4027 501.181C-70.7877 497.801 -70.2964 494.373 -69.9407 490.927L-75.909 490.311C-76.2486 493.6 -76.7178 496.875 -77.3058 500.107L-71.4027 501.181ZM-69.2919 480.576C-69.2178 477.092 -69.2938 473.616 -69.5327 470.181L-75.5182 470.598C-75.2926 473.842 -75.2201 477.135 -75.2905 480.449L-69.2919 480.576ZM-70.788 459.819C-71.4032 456.329 -72.2141 452.914 -73.2374 449.611L-78.9685 451.387C-78.0258 454.429 -77.272 457.598 -76.6969 460.86L-70.788 459.819ZM-77.1161 439.765C-77.9008 438.161 -78.7504 436.599 -79.6677 435.086L-84.7989 438.196C-83.9786 439.549 -83.2146 440.953 -82.5055 442.402L-77.1161 439.765ZM-79.6677 435.086C-80.5592 433.615 -81.4878 432.181 -82.4518 430.785L-87.3891 434.195C-86.4926 435.493 -85.6286 436.827 -84.7989 438.196L-79.6677 435.086ZM-88.7609 422.727C-91.0383 420.152 -93.4504 417.739 -95.981 415.484L-99.972 419.964C-97.616 422.063 -95.3722 424.309 -93.255 426.702L-88.7609 422.727ZM-103.992 409.142C-106.781 407.183 -109.675 405.386 -112.656 403.751L-115.542 409.011C-112.75 410.543 -110.044 412.223 -107.44 414.052L-103.992 409.142ZM-121.834 399.328C-124.957 398.019 -128.151 396.866 -131.399 395.869L-133.16 401.604C-130.097 402.545 -127.09 403.63 -124.154 404.862L-121.834 399.328ZM-141.239 393.351C-144.546 392.667 -147.891 392.134 -151.259 391.75L-151.94 397.711C-148.748 398.075 -145.581 398.58 -142.454 399.226L-141.239 393.351ZM-161.372 391.041C-164.746 390.952 -168.127 391.007 -171.502 391.207L-171.149 397.196C-167.944 397.007 -164.733 396.954 -161.531 397.039L-161.372 391.041ZM-181.581 392.232C-184.927 392.716 -188.251 393.343 -191.538 394.11L-190.174 399.953C-187.054 399.225 -183.898 398.63 -180.721 398.17L-181.581 392.232ZM-201.3 396.843C-204.521 397.899 -207.689 399.098 -210.791 400.436L-208.413 405.945C-205.481 404.679 -202.482 403.545 -199.431 402.545L-201.3 396.843ZM-219.92 404.896C-222.896 406.531 -225.79 408.309 -228.584 410.228L-225.187 415.173C-222.561 413.37 -219.838 411.697 -217.031 410.156L-219.92 404.896ZM-236.67 416.426C-237.963 417.53 -239.226 418.67 -240.459 419.845L-236.318 424.187C-235.166 423.089 -233.984 422.022 -232.773 420.988L-236.67 416.426ZM-240.459 419.845C-241.622 420.954 -242.741 422.117 -243.816 423.329L-239.327 427.311C-238.359 426.219 -237.356 425.176 -236.318 424.187L-240.459 419.845ZM-249.638 430.983C-251.36 433.614 -252.932 436.392 -254.357 439.285L-248.974 441.936C-247.649 439.246 -246.196 436.681 -244.618 434.268L-249.638 430.983ZM-258.095 448.004C-259.18 450.932 -260.139 453.942 -260.973 457.007L-255.183 458.582C-254.394 455.68 -253.489 452.841 -252.469 450.089L-258.095 448.004ZM-263.074 466.195C-263.65 469.272 -264.111 472.382 -264.457 475.502L-258.493 476.163C-258.163 473.189 -257.725 470.227 -257.176 467.3L-263.074 466.195ZM-265.152 484.878C-265.272 488.032 -265.276 491.175 -265.165 494.285L-259.169 494.071C-259.274 491.11 -259.271 488.114 -259.157 485.105L-265.152 484.878ZM-264.471 503.672C-264.109 506.853 -263.621 509.973 -263.008 513.006L-257.127 511.816C-257.705 508.961 -258.166 506.012 -258.509 502.995L-264.471 503.672ZM-260.669 522.203C-260.191 523.739 -259.675 525.243 -259.122 526.708L-253.509 524.587C-254.019 523.239 -254.496 521.849 -254.94 520.421L-260.669 522.203ZM-259.122 526.708C-258.544 528.239 -257.946 529.777 -257.329 531.322L-251.757 529.096C-252.36 527.586 -252.944 526.083 -253.509 524.587L-259.122 526.708ZM-253.493 540.448C-252.176 543.435 -250.793 546.434 -249.348 549.437L-243.941 546.835C-245.358 543.891 -246.713 540.952 -248.003 538.027L-253.493 540.448ZM-244.916 558.28C-243.402 561.185 -241.831 564.087 -240.209 566.976L-234.977 564.038C-236.569 561.203 -238.11 558.357 -239.595 555.506L-244.916 558.28ZM-235.231 575.522C-233.53 578.34 -231.781 581.138 -229.986 583.909L-224.95 580.647C-226.71 577.93 -228.426 575.186 -230.094 572.422L-235.231 575.522ZM-224.472 592.124C-222.585 594.839 -220.654 597.518 -218.683 600.154L-213.877 596.561C-215.806 593.981 -217.697 591.358 -219.546 588.699L-224.472 592.124ZM-212.608 607.979C-210.522 610.566 -208.397 613.1 -206.236 615.574L-201.718 611.626C-203.825 609.214 -205.9 606.74 -207.938 604.213L-212.608 607.979ZM-199.549 622.906C-197.242 625.327 -194.898 627.675 -192.521 629.939L-188.382 625.595C-190.686 623.4 -192.962 621.121 -195.206 618.766L-199.549 622.906ZM-185.134 636.614C-183.863 637.699 -182.584 638.76 -181.297 639.795L-177.538 635.118C-178.777 634.123 -180.01 633.1 -181.236 632.052L-185.134 636.614ZM-181.297 639.795C-180.054 640.794 -178.801 641.779 -177.538 642.749L-173.882 637.992C-175.111 637.048 -176.329 636.09 -177.538 635.118L-181.297 639.795ZM-169.827 648.406C-167.213 650.236 -164.558 652.005 -161.866 653.71L-158.655 648.642C-161.269 646.986 -163.847 645.268 -166.388 643.49L-169.827 648.406ZM-153.664 658.642C-150.89 660.222 -148.08 661.736 -145.234 663.18L-142.519 657.829C-145.277 656.429 -148.003 654.961 -150.695 653.428L-153.664 658.642ZM-136.59 667.303C-133.675 668.605 -130.727 669.835 -127.747 670.99L-125.579 665.395C-128.464 664.278 -131.318 663.087 -134.142 661.825L-136.59 667.303ZM-118.724 674.222C-115.693 675.22 -112.632 676.14 -109.543 676.98L-107.969 671.19C-110.956 670.378 -113.916 669.488 -116.848 668.523L-118.724 674.222ZM-100.225 679.246C-98.6637 679.582 -97.096 679.897 -95.5221 680.191L-94.4199 674.293C-95.9405 674.009 -97.4551 673.705 -98.9635 673.38L-100.225 679.246ZM-95.5221 680.191C-93.9543 680.484 -92.3643 680.77 -90.7541 681.049L-89.7324 675.136C-91.3158 674.863 -92.8789 674.581 -94.4199 674.293L-95.5221 680.191ZM-81.1717 682.573C-78.0186 683.032 -74.808 683.457 -71.5531 683.843L-70.8469 677.884C-74.0481 677.505 -77.2062 677.087 -80.3078 676.635L-81.1717 682.573ZM-61.9058 684.854C-58.7049 685.145 -55.4745 685.395 -52.2267 685.598L-51.8534 679.609C-55.0422 679.41 -58.2157 679.165 -61.3619 678.879L-61.9058 684.854ZM-42.5254 686.056C-39.2878 686.158 -36.044 686.209 -32.8056 686.204L-32.8154 680.204C-35.984 680.209 -39.1611 680.159 -42.3353 680.059L-42.5254 686.056ZM-23.0765 686.012C-19.8125 685.886 -16.5651 685.696 -13.3466 685.436L-13.8283 679.456C-16.9588 679.708 -20.1227 679.893 -23.3082 680.016L-23.0765 686.012ZM-3.63733 684.425C-0.366237 684.004 2.86198 683.5 6.03325 682.909L4.93389 677.011C1.8802 677.58 -1.23705 678.066 -4.40494 678.475L-3.63733 684.425ZM15.6243 680.799C17.2248 680.389 18.8062 679.953 20.3662 679.489L18.6564 673.738C17.1724 674.179 15.6647 674.595 14.1352 674.987L15.6243 680.799ZM20.3662 679.489C21.9455 679.019 23.5197 678.532 25.0888 678.028L23.2537 672.316C21.7256 672.807 20.1932 673.281 18.6564 673.738L20.3662 679.489ZM34.4322 674.808C37.5172 673.673 40.5827 672.474 43.6292 671.216L41.3395 665.67C38.3626 666.899 35.3697 668.07 32.3603 669.177L34.4322 674.808ZM52.6763 667.286C55.6603 665.925 58.6265 664.51 61.5753 663.045L58.9054 657.672C56.0141 659.109 53.1083 660.494 50.1874 661.826L52.6763 667.286ZM70.3284 658.525C73.2137 656.979 76.0827 655.387 78.936 653.754L75.9553 648.547C73.1486 650.154 70.3287 651.718 67.4949 653.236L70.3284 658.525ZM87.4051 648.76C90.1999 647.064 92.98 645.33 95.7459 643.564L92.5158 638.507C89.7869 640.251 87.046 641.959 84.2926 643.63L87.4051 648.76ZM103.966 638.189C106.682 636.374 109.384 634.529 112.074 632.658L108.648 627.732C105.987 629.583 103.315 631.407 100.632 633.201L103.966 638.189ZM120.076 626.991C122.725 625.084 125.362 623.154 127.987 621.205L124.41 616.388C121.807 618.32 119.193 620.233 116.57 622.123L120.076 626.991ZM135.815 615.317C138.41 613.34 140.995 611.347 143.57 609.342L139.884 604.608C137.325 606.601 134.756 608.58 132.179 610.544L135.815 615.317ZM151.263 603.298C153.82 601.271 156.368 599.236 158.906 597.196L155.147 592.52C152.618 594.552 150.081 596.579 147.537 598.595L151.263 603.298ZM166.508 591.053C169.04 588.997 171.564 586.939 174.079 584.883L170.282 580.237C167.77 582.29 165.251 584.344 162.725 586.395L166.508 591.053ZM181.631 578.699C184.155 576.631 186.669 574.569 189.178 572.515L185.376 567.873C182.866 569.928 180.35 571.992 177.828 574.059L181.631 578.699ZM196.731 566.344C199.26 564.284 201.783 562.236 204.299 560.205L200.531 555.536C198.006 557.574 195.476 559.628 192.941 561.693L196.731 566.344ZM211.894 554.114C214.445 552.083 216.991 550.073 219.531 548.087L215.836 543.36C213.28 545.358 210.72 547.379 208.156 549.42L211.894 554.114ZM227.229 542.139C228.519 541.155 229.807 540.178 231.094 539.21L227.487 534.416C226.188 535.393 224.889 536.377 223.59 537.369L227.229 542.139ZM231.094 539.21C232.586 538.087 234.007 537.003 235.362 535.958L231.698 531.206C230.359 532.239 228.958 533.309 227.487 534.416L231.094 539.21ZM243.734 529.395C246.86 526.924 249.557 524.801 252.037 522.987L248.495 518.144C245.909 520.035 243.123 522.23 240.013 524.688L243.734 529.395ZM260.539 517.702C263.449 516.33 266.327 515.53 269.666 515.279L269.217 509.296C265.11 509.604 261.52 510.606 257.98 512.275L260.539 517.702ZM279.541 515.844C282.493 516.303 285.821 517.006 289.659 517.966L291.116 512.146C287.164 511.157 283.649 510.41 280.462 509.915L279.541 515.844ZM299.77 520.726C301.393 521.197 303.085 521.698 304.853 522.23L306.581 516.485C304.799 515.948 303.087 515.441 301.442 514.964L299.77 520.726ZM304.853 522.23C306.5 522.726 308.107 523.189 309.676 523.62L311.267 517.835C309.746 517.416 308.185 516.967 306.581 516.485L304.853 522.23ZM319.427 526.011C322.944 526.761 326.246 527.334 329.359 527.75L330.155 521.803C327.205 521.409 324.055 520.863 320.678 520.143L319.427 526.011ZM339.503 528.604C343.191 528.715 346.582 528.582 349.741 528.26L349.133 522.291C346.242 522.586 343.115 522.71 339.684 522.606L339.503 528.604ZM359.87 526.471C363.355 525.591 366.546 524.514 369.574 523.384L367.475 517.763C364.571 518.847 361.602 519.846 358.401 520.654L359.87 526.471ZM378.788 519.775C381.757 518.626 384.705 517.566 387.831 516.709L386.244 510.923C382.835 511.858 379.673 512.999 376.622 514.18L378.788 519.775ZM397.027 514.955C398.524 514.797 400.084 514.692 401.718 514.651L401.568 508.653C399.772 508.698 398.051 508.813 396.394 508.989L397.027 514.955ZM401.718 514.651C403.446 514.608 405.155 514.572 406.846 514.546L406.752 508.547C405.041 508.573 403.313 508.609 401.568 508.653L401.718 514.651ZM417.081 514.505C420.568 514.537 423.97 514.621 427.289 514.767L427.553 508.773C424.155 508.623 420.683 508.538 417.136 508.505L417.081 514.505ZM437.44 515.444C440.887 515.759 444.234 516.163 447.487 516.669L448.408 510.74C445.018 510.213 441.545 509.795 437.988 509.469L437.44 515.444ZM457.359 518.596C460.671 519.388 463.873 520.315 466.971 521.393L468.943 515.727C465.641 514.577 462.245 513.595 458.755 512.761L457.359 518.596ZM476.163 525.199C479.135 526.645 482.007 528.271 484.784 530.097L488.08 525.084C485.082 523.113 481.985 521.359 478.787 519.804L476.163 525.199ZM492.691 536.073C495.136 538.182 497.505 540.49 499.801 543.015L504.24 538.979C501.786 536.279 499.244 533.802 496.61 531.53L492.691 536.073ZM506.114 550.768C508.017 553.368 509.866 556.152 511.663 559.133L516.802 556.035C514.918 552.91 512.97 549.977 510.956 547.224L506.114 550.768ZM516.539 567.965C517.287 569.443 518.026 570.962 518.754 572.521L524.19 569.982C523.436 568.367 522.67 566.791 521.891 565.255L516.539 567.965ZM518.754 572.521C519.514 574.149 520.262 575.783 520.998 577.425L526.473 574.971C525.725 573.301 524.963 571.638 524.19 569.982L518.754 572.521ZM525.249 587.333C526.611 590.656 527.92 594.003 529.17 597.373L534.795 595.285C533.521 591.851 532.188 588.441 530.801 585.057L525.249 587.333ZM532.741 607.536C533.871 610.944 534.939 614.372 535.941 617.818L541.702 616.142C540.679 612.624 539.589 609.125 538.436 605.649L532.741 607.536ZM538.746 628.207C539.613 631.689 540.411 635.186 541.134 638.695L547.01 637.484C546.27 633.893 545.455 630.316 544.568 626.757L538.746 628.207ZM543.079 649.267C543.651 652.805 544.144 656.352 544.555 659.908L550.516 659.219C550.094 655.571 549.588 651.934 549.002 648.309L543.079 649.267ZM545.539 670.599C545.66 672.384 545.76 674.17 545.838 675.957L551.832 675.697C551.752 673.86 551.65 672.025 551.525 670.192L545.539 670.599ZM545.838 675.957C545.911 677.656 545.962 679.367 545.993 681.089L551.992 680.982C551.96 679.214 551.908 677.452 551.832 675.697L545.838 675.957ZM545.979 691.406C545.919 694.837 545.817 698.295 545.702 701.778L551.698 701.977C551.814 698.483 551.918 694.988 551.978 691.51L545.979 691.406ZM545.351 712.2C545.242 715.684 545.15 719.182 545.108 722.678L551.108 722.75C551.149 719.308 551.239 715.853 551.348 712.388L545.351 712.2ZM545.161 733.212C545.25 736.748 545.422 740.278 545.709 743.789L551.689 743.299C551.413 739.92 551.246 736.505 551.159 733.061L545.161 733.212ZM546.972 754.367C547.255 756.129 547.577 757.884 547.943 759.63L553.815 758.401C553.47 756.752 553.165 755.089 552.896 753.415L546.972 754.367ZM547.943 759.63C548.308 761.376 548.706 763.114 549.135 764.844L554.958 763.401C554.547 761.74 554.165 760.073 553.815 758.401L547.943 759.63ZM552.062 775.116C553.151 778.499 554.351 781.847 555.65 785.159L561.235 782.967C559.98 779.767 558.822 776.536 557.774 773.278L552.062 775.116ZM559.821 794.954C561.3 798.175 562.866 801.357 564.508 804.496L569.825 801.716C568.229 798.663 566.708 795.573 565.274 792.45L559.821 794.954ZM569.648 813.785C571.434 816.845 573.284 819.86 575.188 822.827L580.238 819.587C578.377 816.688 576.571 813.745 574.83 810.761L569.648 813.785ZM581.08 831.629C582.092 833.08 583.115 834.518 584.146 835.943L589.006 832.424C587.995 831.028 586.993 829.619 586.002 828.198L581.08 831.629ZM584.146 835.943C585.166 837.352 586.202 838.736 587.253 840.096L592.001 836.427C590.988 835.116 589.989 833.782 589.006 832.424L584.146 835.943ZM593.82 848.062C596.113 850.67 598.467 853.18 600.88 855.594L605.124 851.353C602.801 849.028 600.534 846.612 598.327 844.101L593.82 848.062ZM608.419 862.669C611.019 864.957 613.676 867.148 616.388 869.246L620.06 864.501C617.447 862.479 614.887 860.368 612.383 858.164L608.419 862.669ZM624.743 875.309C627.593 877.247 630.494 879.095 633.442 880.855L636.518 875.703C633.669 874.002 630.868 872.218 628.117 870.348L624.743 875.309ZM642.44 885.888C645.481 887.48 648.565 888.989 651.688 890.42L654.187 884.965C651.157 883.577 648.168 882.114 645.222 880.572L642.44 885.888ZM661.147 894.471C664.325 895.741 667.537 896.938 670.779 898.066L672.75 892.399C669.591 891.3 666.464 890.135 663.374 888.9L661.147 894.471ZM680.546 901.232C683.813 902.217 687.106 903.138 690.422 904L691.931 898.192C688.687 897.349 685.468 896.449 682.277 895.487L680.546 901.232ZM700.386 906.399C703.712 907.14 707.057 907.826 710.417 908.462L711.533 902.566C708.233 901.942 704.951 901.269 701.69 900.543L700.386 906.399ZM720.497 910.215C723.858 910.75 727.23 911.24 730.611 911.688L731.399 905.74C728.068 905.298 724.747 904.816 721.44 904.29L720.497 910.215ZM740.752 912.907C744.135 913.275 747.523 913.604 750.911 913.9L751.432 907.922C748.084 907.63 744.738 907.305 741.4 906.942L740.752 912.907ZM761.08 914.689C764.475 914.921 767.868 915.123 771.256 915.299L771.566 909.307C768.21 909.133 764.849 908.933 761.489 908.703L761.08 914.689ZM781.434 915.752C784.836 915.88 788.229 915.984 791.61 916.07L791.762 910.072C788.404 909.987 785.035 909.883 781.659 909.756L781.434 915.752ZM801.779 916.275C805.185 916.328 808.575 916.365 811.944 916.39L811.989 910.39C808.634 910.365 805.26 910.328 801.871 910.276L801.779 916.275ZM822.111 916.436C823.806 916.439 825.496 916.441 827.178 916.441V910.441C825.499 910.441 823.814 910.439 822.123 910.436L822.111 916.436ZM827.178 916.441C828.776 916.441 830.375 916.439 831.975 916.436L831.962 910.436C830.367 910.439 828.772 910.441 827.178 910.441V916.441ZM841.57 916.393C844.769 916.37 847.968 916.34 851.168 916.299L851.092 910.3C847.904 910.34 844.716 910.371 841.528 910.393L841.57 916.393ZM860.768 916.147C863.967 916.086 867.168 916.014 870.368 915.929L870.209 909.931C867.024 910.015 863.839 910.087 860.653 910.148L860.768 916.147ZM879.969 915.636C883.17 915.526 886.37 915.401 889.57 915.262L889.309 909.267C886.128 909.406 882.945 909.53 879.762 909.64L879.969 915.636ZM899.169 914.797C902.369 914.626 905.568 914.438 908.766 914.233L908.382 908.246C905.206 908.449 902.029 908.635 898.849 908.805L899.169 914.797ZM918.358 913.564C921.555 913.322 924.75 913.061 927.944 912.78L927.418 906.803C924.25 907.082 921.079 907.341 917.906 907.581L918.358 913.564ZM937.522 911.874C940.713 911.551 943.902 911.206 947.089 910.838L946.401 904.877C943.243 905.242 940.081 905.584 936.917 905.905L937.522 911.874ZM956.643 909.663C958.234 909.455 959.824 909.241 961.414 909.021L960.591 903.078C959.017 903.296 957.442 903.508 955.866 903.714L956.643 909.663ZM961.414 909.021C963.399 908.746 965.408 908.337 967.434 907.811L965.925 902.003C964.099 902.478 962.32 902.839 960.591 903.078L961.414 909.021ZM978.798 903.816C982.293 902.304 985.848 900.538 989.444 898.582L986.578 893.311C983.103 895.2 979.712 896.883 976.416 898.309L978.798 903.816ZM999.604 892.67C1002.86 890.669 1006.15 888.558 1009.45 886.381L1006.16 881.369C1002.88 883.522 999.649 885.599 996.461 887.56L999.604 892.67Z" fill="black" fill-opacity="0.05"/>
</svg>
