<svg width="186" height="501" viewBox="0 0 186 501" fill="none" xmlns="http://www.w3.org/2000/svg">
<path d="M458.281 204.926C457.907 203.26 457.514 201.603 457.1 199.955L454.191 200.685C453.372 197.422 452.477 194.198 451.507 191.013L454.377 190.139C453.383 186.874 452.311 183.651 451.164 180.47L448.342 181.487C447.203 178.326 445.988 175.207 444.701 172.133L447.468 170.974C446.151 167.829 444.76 164.73 443.296 161.678L440.591 162.975C439.139 159.948 437.615 156.968 436.022 154.037L438.657 152.604C437.03 149.612 435.332 146.669 433.565 143.778L431.005 145.342C429.256 142.481 427.438 139.67 425.554 136.912L428.032 135.22C426.112 132.41 424.125 129.654 422.074 126.954L419.685 128.769C417.658 126.1 415.566 123.487 413.414 120.93L415.708 118.998C413.518 116.397 411.265 113.854 408.953 111.371L406.757 113.416C404.475 110.965 402.133 108.573 399.734 106.243L401.825 104.091C399.389 101.723 396.895 99.4169 394.346 97.1744L392.364 99.4267C389.851 97.2154 387.285 95.0669 384.667 92.983L386.535 90.6359C383.878 88.521 381.17 86.4717 378.412 84.4897L376.661 86.9257C373.944 84.9729 371.179 83.0864 368.369 81.2678L369.998 78.749C367.149 76.9053 364.254 75.1305 361.315 73.4262L359.81 76.0213C356.917 74.3435 353.981 72.7351 351.006 71.1978L352.383 68.5325C349.369 66.9754 346.315 65.4902 343.224 64.0786L341.978 66.8076C338.937 65.419 335.859 64.1027 332.747 62.8603L333.86 60.0742C330.711 58.817 327.528 57.6344 324.313 56.5281L323.337 59.3649C320.177 58.2777 316.987 57.2652 313.768 56.3291L314.605 53.4485C311.351 52.5022 308.069 51.6329 304.76 50.8423L304.063 53.7601C300.815 52.9839 297.542 52.2845 294.246 51.6637L294.801 48.7155C291.473 48.0886 288.122 47.5406 284.75 47.0731L284.338 50.0446C281.032 49.5862 277.707 49.2063 274.364 48.9065L274.632 45.9185C271.262 45.6162 267.874 45.3941 264.471 45.254L264.347 48.2514C261.015 48.1141 257.669 48.0565 254.311 48.08L254.29 45.08C250.908 45.1037 247.515 45.2084 244.112 45.3957L244.277 48.3912C240.95 48.5744 237.614 48.8376 234.271 49.1824L233.963 46.1982C230.603 46.5448 227.236 46.9726 223.864 47.483L224.313 50.4492C221.021 50.9475 217.725 51.5258 214.427 52.1853L213.839 49.2435C212.174 49.5763 210.51 49.9295 208.845 50.3033C207.179 50.677 205.523 51.0693 203.877 51.4797L204.602 54.3907C201.338 55.2042 198.111 56.0902 194.922 57.0466L194.06 54.173C190.794 55.1525 187.567 56.2048 184.381 57.3277L185.379 60.1571C182.209 61.2743 179.08 62.4622 175.994 63.7186L174.863 60.9401C171.706 62.225 168.594 63.5805 165.527 65.0044L166.79 67.7255C163.744 69.1396 160.743 70.6219 157.789 72.1702L156.397 69.5131C153.38 71.0941 150.412 72.7429 147.494 74.4569L149.013 77.0437C146.12 78.7434 143.276 80.5082 140.483 82.3355L138.84 79.8251C135.992 81.6887 133.197 83.6163 130.456 85.6056L132.218 88.0336C129.504 90.0036 126.843 92.0349 124.238 94.1248L122.361 91.785C119.708 93.9138 117.112 96.1027 114.574 98.3489L116.563 100.595C114.053 102.817 111.601 105.096 109.21 107.429L107.115 105.282C104.681 107.656 102.309 110.086 99.9991 112.568L102.196 114.612C99.9133 117.065 97.6935 119.57 95.5378 122.125L93.2449 120.191C91.0534 122.788 88.9272 125.436 86.8682 128.132L89.2523 129.953C87.2193 132.614 85.2527 135.323 83.3543 138.077L80.8845 136.374C78.9562 139.17 77.0971 142.013 75.309 144.897L77.8589 146.478C76.0952 149.323 74.4017 152.21 72.7802 155.137L70.156 153.683C68.5102 156.654 66.9374 159.664 65.4394 162.711L68.1317 164.035C66.6556 167.038 65.2532 170.077 63.9264 173.15L61.1721 171.961C59.8266 175.078 58.5575 178.228 57.3667 181.411L60.1765 182.462C59.0045 185.594 57.9095 188.758 56.8933 191.949L54.0347 191.039C53.0052 194.272 52.0553 197.533 51.1867 200.821L54.0872 201.587C53.2336 204.818 52.4597 208.075 51.7675 211.354L48.8322 210.734C48.1317 214.052 47.5134 217.393 46.9792 220.754L49.942 221.225C49.4178 224.523 48.9756 227.841 48.6173 231.176L45.6344 230.855C45.2724 234.224 44.9946 237.611 44.8028 241.012L47.798 241.181C47.6101 244.512 47.506 247.857 47.4872 251.214L44.4872 251.197C44.4683 254.582 44.5348 257.979 44.6885 261.385L47.6855 261.25C47.8357 264.58 48.0705 267.918 48.3915 271.263L45.4052 271.55C45.7282 274.916 46.1371 278.288 46.6334 281.664L49.6015 281.227C50.0858 284.522 50.6547 287.819 51.3095 291.119L48.3669 291.703C48.6976 293.369 49.0498 295.035 49.4239 296.701C49.7979 298.368 50.1917 300.025 50.6048 301.672L53.5147 300.943C54.3328 304.205 55.2281 307.43 56.1981 310.615L53.3282 311.489C54.3224 314.753 55.3941 317.977 56.5407 321.158L59.363 320.141C60.5024 323.302 61.717 326.42 63.0042 329.495L60.237 330.654C61.5537 333.798 62.9454 336.898 64.4094 339.95L67.1144 338.653C68.5661 341.68 70.0901 344.66 71.6836 347.591L69.048 349.024C70.6749 352.016 72.3734 354.959 74.1407 357.85L76.7003 356.286C78.4496 359.147 80.2673 361.958 82.1508 364.715L79.6736 366.407C81.5931 369.218 83.5799 371.974 85.6312 374.674L88.0201 372.859C90.0474 375.528 92.1389 378.141 94.2916 380.698L91.9969 382.63C94.1873 385.231 96.4401 387.774 98.7527 390.257L100.948 388.212C103.231 390.663 105.573 393.054 107.971 395.385L105.88 397.537C108.317 399.905 110.811 402.211 113.359 404.453L115.341 402.201C117.854 404.412 120.421 406.561 123.039 408.645L121.17 410.992C123.827 413.107 126.536 415.156 129.293 417.138L131.044 414.702C133.761 416.655 136.526 418.541 139.337 420.36L137.707 422.879C140.556 424.723 143.452 426.497 146.39 428.202L147.895 425.606C150.788 427.284 153.724 428.893 156.7 430.43L155.322 433.095C158.336 434.652 161.39 436.138 164.482 437.549L165.728 434.82C168.768 436.209 171.846 437.525 174.958 438.768L173.846 441.554C176.994 442.811 180.178 443.993 183.393 445.1L184.369 442.263C187.528 443.35 190.719 444.363 193.938 445.299L193.1 448.179C196.354 449.126 199.636 449.995 202.945 450.786L203.642 447.868C206.89 448.644 210.164 449.343 213.46 449.964L212.904 452.912C216.233 453.539 219.584 454.087 222.955 454.555L223.367 451.583C226.673 452.042 229.998 452.422 233.341 452.721L233.073 455.709C236.444 456.012 239.832 456.234 243.234 456.374L243.358 453.376C246.69 453.514 250.036 453.571 253.395 453.548L253.416 456.548C256.797 456.524 260.19 456.419 263.593 456.232L263.428 453.237C266.755 453.053 270.091 452.79 273.434 452.445L273.742 455.43C277.103 455.083 280.47 454.655 283.841 454.145L283.392 451.179C286.684 450.68 289.98 450.102 293.278 449.443L293.867 452.384C295.531 452.051 297.196 451.698 298.861 451.325C300.526 450.951 302.182 450.559 303.829 450.148L303.103 447.237C306.367 446.424 309.594 445.538 312.783 444.581L313.645 447.455C316.911 446.475 320.138 445.423 323.324 444.3L322.327 441.471C325.496 440.354 328.625 439.166 331.711 437.909L332.843 440.688C335.999 439.403 339.111 438.047 342.178 436.623L340.915 433.902C343.961 432.488 346.962 431.006 349.916 429.458L351.308 432.115C354.325 430.534 357.293 428.885 360.211 427.171L358.692 424.584C361.586 422.884 364.43 421.12 367.222 419.292L368.865 421.803C371.713 419.939 374.508 418.011 377.249 416.022L375.487 413.594C378.202 411.624 380.862 409.593 383.467 407.503L385.344 409.843C387.997 407.714 390.593 405.525 393.131 403.279L391.142 401.033C393.652 398.811 396.104 396.532 398.496 394.198L400.591 396.346C403.024 393.972 405.397 391.542 407.706 389.06L405.51 387.016C407.792 384.563 410.012 382.058 412.167 379.503L414.46 381.437C416.652 378.84 418.778 376.192 420.837 373.496L418.453 371.675C420.486 369.013 422.452 366.305 424.351 363.551L426.821 365.254C428.749 362.457 430.608 359.615 432.396 356.731L429.846 355.15C431.61 352.305 433.304 349.417 434.925 346.491L437.549 347.945C439.195 344.974 440.768 341.964 442.266 338.916L439.574 337.593C441.05 334.59 442.452 331.551 443.779 328.478L446.533 329.667C447.879 326.55 449.148 323.399 450.339 320.217L447.529 319.166C448.701 316.033 449.796 312.87 450.812 309.679L453.67 310.589C454.7 307.356 455.65 304.094 456.519 300.807L453.618 300.041C454.472 296.809 455.245 293.553 455.938 290.274L458.873 290.893C459.574 287.575 460.192 284.235 460.726 280.874L457.763 280.403C458.287 277.105 458.73 273.787 459.088 270.452L462.071 270.773C462.433 267.403 462.711 264.017 462.902 260.616L459.907 260.447C460.095 257.116 460.199 253.771 460.218 250.414L463.218 250.431C463.237 247.045 463.17 243.649 463.017 240.243L460.02 240.378C459.869 237.048 459.635 233.71 459.314 230.365L462.3 230.078C461.977 226.712 461.568 223.34 461.072 219.964L458.104 220.4C457.619 217.106 457.051 213.808 456.396 210.509L459.338 209.925C459.008 208.259 458.655 206.593 458.281 204.926Z" stroke="white" stroke-width="6" stroke-dasharray="10 10"/>
</svg>
