<svg width="597" height="235" viewBox="0 0 597 235" fill="none" xmlns="http://www.w3.org/2000/svg">
<path d="M337.281 204.926C336.907 203.26 336.514 201.603 336.1 199.955L333.191 200.685C332.372 197.422 331.477 194.198 330.507 191.013L333.377 190.139C332.383 186.874 331.311 183.651 330.164 180.47L327.342 181.487C326.203 178.326 324.988 175.207 323.701 172.133L326.468 170.974C325.151 167.829 323.76 164.73 322.296 161.678L319.591 162.975C318.139 159.948 316.615 156.968 315.022 154.037L317.657 152.604C316.03 149.612 314.332 146.669 312.565 143.778L310.005 145.342C308.256 142.481 306.438 139.67 304.554 136.912L307.032 135.22C305.112 132.41 303.125 129.654 301.074 126.954L298.685 128.769C296.658 126.1 294.566 123.487 292.414 120.93L294.708 118.998C292.518 116.397 290.265 113.854 287.953 111.371L285.757 113.416C283.475 110.965 281.133 108.573 278.734 106.243L280.825 104.091C278.389 101.723 275.895 99.4169 273.346 97.1744L271.364 99.4267C268.851 97.2154 266.285 95.0669 263.667 92.983L265.535 90.6359C262.878 88.521 260.17 86.4717 257.412 84.4897L255.661 86.9257C252.944 84.9729 250.179 83.0864 247.369 81.2678L248.998 78.749C246.149 76.9053 243.254 75.1305 240.315 73.4262L238.81 76.0213C235.917 74.3435 232.981 72.7351 230.006 71.1978L231.383 68.5325C228.369 66.9754 225.315 65.4902 222.224 64.0786L220.978 66.8076C217.937 65.419 214.859 64.1027 211.747 62.8603L212.86 60.0742C209.711 58.817 206.528 57.6344 203.313 56.5281L202.337 59.3649C199.177 58.2777 195.987 57.2652 192.768 56.3291L193.605 53.4485C190.351 52.5022 187.069 51.6329 183.76 50.8423L183.063 53.7601C179.815 52.9839 176.542 52.2845 173.246 51.6637L173.801 48.7155C170.473 48.0886 167.122 47.5406 163.75 47.0731L163.338 50.0446C160.032 49.5862 156.707 49.2063 153.364 48.9065L153.632 45.9185C150.262 45.6162 146.874 45.3941 143.471 45.254L143.347 48.2514C140.015 48.1141 136.669 48.0565 133.311 48.08L133.29 45.08C129.908 45.1037 126.515 45.2084 123.112 45.3957L123.277 48.3912C119.95 48.5744 116.614 48.8376 113.271 49.1824L112.963 46.1982C109.603 46.5448 106.236 46.9726 102.864 47.483L103.313 50.4492C100.021 50.9475 96.7253 51.5258 93.4269 52.1853L92.8387 49.2435C91.1743 49.5763 89.5095 49.9295 87.8445 50.3033C86.1795 50.677 84.5234 51.0693 82.8765 51.4797L83.602 54.3907C80.3382 55.2042 77.1111 56.0902 73.9221 57.0466L73.0603 54.173C69.7942 55.1525 66.5674 56.2048 63.3813 57.3277L64.3785 60.1571C61.2087 61.2743 58.08 62.4622 54.9938 63.7186L53.8626 60.9401C50.7064 62.225 47.594 63.5805 44.5269 65.0044L45.7901 67.7255C42.7439 69.1396 39.7432 70.6219 36.7895 72.1702L35.3967 69.5131C32.3804 71.0941 29.4123 72.7429 26.4941 74.4569L28.0135 77.0437C25.1196 78.7434 22.2756 80.5082 19.4829 82.3355L17.8403 79.8251C14.9923 81.6887 12.197 83.6163 9.45599 85.6056L11.2181 88.0336C8.50356 90.0036 5.84315 92.0349 3.23848 94.1248L1.36099 91.785C-1.29214 93.9138 -3.88823 96.1027 -6.4256 98.3489L-4.43706 100.595C-6.94709 102.817 -9.3988 105.096 -11.7905 107.429L-13.8854 105.282C-16.3191 107.656 -18.6915 110.086 -21.0009 112.568L-18.8044 114.612C-21.0867 117.065 -23.3065 119.57 -25.4622 122.125L-27.7551 120.191C-29.9466 122.788 -32.0728 125.436 -34.1318 128.132L-31.7477 129.953C-33.7807 132.614 -35.7473 135.323 -37.6457 138.077L-40.1155 136.374C-42.0438 139.17 -43.9029 142.013 -45.691 144.897L-43.1411 146.478C-44.9048 149.323 -46.5983 152.21 -48.2198 155.137L-50.844 153.683C-52.4898 156.654 -54.0626 159.664 -55.5606 162.711L-52.8683 164.035C-54.3444 167.038 -55.7468 170.077 -57.0736 173.15L-59.8279 171.961C-61.1734 175.078 -62.4425 178.228 -63.6333 181.411L-60.8235 182.462C-61.9955 185.594 -63.0905 188.758 -64.1067 191.949L-66.9653 191.039C-67.9948 194.272 -68.9447 197.533 -69.8133 200.821L-66.9128 201.587C-67.7664 204.818 -68.5403 208.075 -69.2325 211.354L-72.1678 210.734C-72.8683 214.052 -73.4866 217.393 -74.0208 220.754L-71.058 221.225C-71.5822 224.523 -72.0244 227.841 -72.3827 231.176L-75.3656 230.855C-75.7276 234.224 -76.0054 237.611 -76.1972 241.012L-73.202 241.181C-73.3899 244.512 -73.494 247.857 -73.5128 251.214L-76.5128 251.197C-76.5317 254.582 -76.4652 257.979 -76.3115 261.385L-73.3145 261.25C-73.1643 264.58 -72.9295 267.918 -72.6085 271.263L-75.5948 271.55C-75.2718 274.916 -74.8629 278.288 -74.3666 281.664L-71.3985 281.227C-70.9142 284.522 -70.3453 287.819 -69.6905 291.119L-72.6331 291.703C-72.3024 293.369 -71.9502 295.035 -71.5761 296.701C-71.2021 298.368 -70.8083 300.025 -70.3952 301.672L-67.4853 300.943C-66.6672 304.205 -65.7719 307.43 -64.8019 310.615L-67.6718 311.489C-66.6776 314.753 -65.6059 317.977 -64.4593 321.158L-61.637 320.141C-60.4976 323.302 -59.283 326.42 -57.9958 329.495L-60.763 330.654C-59.4463 333.798 -58.0546 336.898 -56.5906 339.95L-53.8856 338.653C-52.4339 341.68 -50.9099 344.66 -49.3164 347.591L-51.952 349.024C-50.3251 352.016 -48.6266 354.959 -46.8593 357.85L-44.2997 356.286C-42.5504 359.147 -40.7327 361.958 -38.8492 364.715L-41.3264 366.407C-39.4069 369.218 -37.4201 371.974 -35.3688 374.674L-32.9799 372.859C-30.9526 375.528 -28.8611 378.141 -26.7084 380.698L-29.0031 382.63C-26.8127 385.231 -24.5599 387.774 -22.2473 390.257L-20.0521 388.212C-17.7693 390.663 -15.4275 393.054 -13.0293 395.385L-15.1201 397.537C-12.6834 399.905 -10.1894 402.211 -7.64097 404.453L-5.65919 402.201C-3.14616 404.412 -0.579303 406.561 2.03861 408.645L0.170231 410.992C2.82703 413.107 5.53558 415.156 8.29307 417.138L10.044 414.702C12.7608 416.655 15.5259 418.541 18.3365 420.36L16.7068 422.879C19.5562 424.723 22.4517 426.497 25.3904 428.202L26.8954 425.606C29.7885 427.284 32.7241 428.893 35.6995 430.43L34.3225 433.095C37.3362 434.652 40.3901 436.138 43.4815 437.549L44.7276 434.82C47.7685 436.209 50.8462 437.525 53.958 438.768L52.8456 441.554C55.9944 442.811 59.1776 443.993 62.3926 445.1L63.3687 442.263C66.5282 443.35 69.7187 444.363 72.9376 445.299L72.0999 448.179C75.3539 449.126 78.6364 449.995 81.9449 450.786L82.6422 447.868C85.8902 448.644 89.1636 449.343 92.4597 449.964L91.9044 452.912C95.2326 453.539 98.5836 454.087 101.955 454.555L102.367 451.583C105.673 452.042 108.998 452.422 112.341 452.721L112.073 455.709C115.444 456.012 118.832 456.234 122.234 456.374L122.358 453.376C125.69 453.514 129.036 453.571 132.395 453.548L132.416 456.548C135.797 456.524 139.19 456.419 142.593 456.232L142.428 453.237C145.755 453.053 149.091 452.79 152.434 452.445L152.742 455.43C156.103 455.083 159.47 454.655 162.841 454.145L162.392 451.179C165.684 450.68 168.98 450.102 172.278 449.443L172.867 452.384C174.531 452.051 176.196 451.698 177.861 451.325C179.526 450.951 181.182 450.559 182.829 450.148L182.103 447.237C185.367 446.424 188.594 445.538 191.783 444.581L192.645 447.455C195.911 446.475 199.138 445.423 202.324 444.3L201.327 441.471C204.496 440.354 207.625 439.166 210.711 437.909L211.843 440.688C214.999 439.403 218.111 438.047 221.178 436.623L219.915 433.902C222.961 432.488 225.962 431.006 228.916 429.458L230.308 432.115C233.325 430.534 236.293 428.885 239.211 427.171L237.692 424.584C240.586 422.884 243.43 421.12 246.222 419.292L247.865 421.803C250.713 419.939 253.508 418.011 256.249 416.022L254.487 413.594C257.202 411.624 259.862 409.593 262.467 407.503L264.344 409.843C266.997 407.714 269.593 405.525 272.131 403.279L270.142 401.033C272.652 398.811 275.104 396.532 277.496 394.198L279.591 396.346C282.024 393.972 284.397 391.542 286.706 389.06L284.51 387.016C286.792 384.563 289.012 382.058 291.167 379.503L293.46 381.437C295.652 378.84 297.778 376.192 299.837 373.496L297.453 371.675C299.486 369.013 301.452 366.305 303.351 363.551L305.821 365.254C307.749 362.457 309.608 359.615 311.396 356.731L308.846 355.15C310.61 352.305 312.304 349.417 313.925 346.491L316.549 347.945C318.195 344.974 319.768 341.964 321.266 338.916L318.574 337.593C320.05 334.59 321.452 331.551 322.779 328.478L325.533 329.667C326.879 326.55 328.148 323.399 329.339 320.217L326.529 319.166C327.701 316.033 328.796 312.87 329.812 309.679L332.67 310.589C333.7 307.356 334.65 304.094 335.519 300.807L332.618 300.041C333.472 296.809 334.245 293.553 334.938 290.274L337.873 290.893C338.574 287.575 339.192 284.235 339.726 280.874L336.763 280.403C337.287 277.105 337.73 273.787 338.088 270.452L341.071 270.773C341.433 267.403 341.711 264.017 341.902 260.616L338.907 260.447C339.095 257.116 339.199 253.771 339.218 250.414L342.218 250.431C342.237 247.045 342.17 243.649 342.017 240.243L339.02 240.378C338.869 237.048 338.635 233.71 338.314 230.365L341.3 230.078C340.977 226.712 340.568 223.34 340.072 219.964L337.104 220.4C336.619 217.106 336.051 213.808 335.396 210.509L338.338 209.925C338.008 208.259 337.655 206.593 337.281 204.926Z" stroke="white" stroke-width="6" stroke-dasharray="10 10"/>
<path d="M548.281 254.926C547.907 253.26 547.514 251.603 547.1 249.955L544.191 250.685C543.372 247.422 542.477 244.198 541.507 241.013L544.377 240.139C543.383 236.874 542.311 233.651 541.164 230.47L538.342 231.487C537.203 228.326 535.988 225.207 534.701 222.133L537.468 220.974C536.151 217.829 534.76 214.73 533.296 211.678L530.591 212.975C529.139 209.948 527.615 206.968 526.022 204.037L528.657 202.604C527.03 199.612 525.332 196.669 523.565 193.778L521.005 195.342C519.256 192.481 517.438 189.67 515.554 186.912L518.032 185.22C516.112 182.41 514.125 179.654 512.074 176.954L509.685 178.769C507.658 176.1 505.566 173.487 503.414 170.93L505.708 168.998C503.518 166.397 501.265 163.854 498.953 161.371L496.757 163.416C494.475 160.965 492.133 158.573 489.734 156.243L491.825 154.091C489.389 151.723 486.895 149.417 484.346 147.174L482.364 149.427C479.851 147.215 477.285 145.067 474.667 142.983L476.535 140.636C473.878 138.521 471.17 136.472 468.412 134.49L466.661 136.926C463.944 134.973 461.179 133.086 458.369 131.268L459.998 128.749C457.149 126.905 454.254 125.13 451.315 123.426L449.81 126.021C446.917 124.344 443.981 122.735 441.006 121.198L442.383 118.533C439.369 116.975 436.315 115.49 433.224 114.079L431.978 116.808C428.937 115.419 425.859 114.103 422.747 112.86L423.86 110.074C420.711 108.817 417.528 107.634 414.313 106.528L413.337 109.365C410.177 108.278 406.987 107.265 403.768 106.329L404.605 103.448C401.351 102.502 398.069 101.633 394.76 100.842L394.063 103.76C390.815 102.984 387.542 102.285 384.246 101.664L384.801 98.7155C381.473 98.0886 378.122 97.5406 374.75 97.0731L374.338 100.045C371.032 99.5862 367.707 99.2063 364.364 98.9065L364.632 95.9185C361.262 95.6162 357.874 95.3941 354.471 95.254L354.347 98.2514C351.015 98.1141 347.669 98.0565 344.311 98.08L344.29 95.08C340.908 95.1037 337.515 95.2084 334.112 95.3957L334.277 98.3912C330.95 98.5744 327.614 98.8376 324.271 99.1824L323.963 96.1982C320.603 96.5448 317.236 96.9726 313.864 97.483L314.313 100.449C311.021 100.948 307.725 101.526 304.427 102.185L303.839 99.2435C302.174 99.5763 300.51 99.9295 298.845 100.303C297.179 100.677 295.523 101.069 293.877 101.48L294.602 104.391C291.338 105.204 288.111 106.09 284.922 107.047L284.06 104.173C280.794 105.152 277.567 106.205 274.381 107.328L275.379 110.157C272.209 111.274 269.08 112.462 265.994 113.719L264.863 110.94C261.706 112.225 258.594 113.581 255.527 115.004L256.79 117.725C253.744 119.14 250.743 120.622 247.789 122.17L246.397 119.513C243.38 121.094 240.412 122.743 237.494 124.457L239.013 127.044C236.12 128.743 233.276 130.508 230.483 132.335L228.84 129.825C225.992 131.689 223.197 133.616 220.456 135.606L222.218 138.034C219.504 140.004 216.843 142.035 214.238 144.125L212.361 141.785C209.708 143.914 207.112 146.103 204.574 148.349L206.563 150.595C204.053 152.817 201.601 155.096 199.21 157.429L197.115 155.282C194.681 157.656 192.309 160.086 189.999 162.568L192.196 164.612C189.913 167.065 187.693 169.57 185.538 172.125L183.245 170.191C181.053 172.788 178.927 175.436 176.868 178.132L179.252 179.953C177.219 182.614 175.253 185.323 173.354 188.077L170.885 186.374C168.956 189.17 167.097 192.013 165.309 194.897L167.859 196.478C166.095 199.323 164.402 202.21 162.78 205.137L160.156 203.683C158.51 206.654 156.937 209.664 155.439 212.711L158.132 214.035C156.656 217.038 155.253 220.077 153.926 223.15L151.172 221.961C149.827 225.078 148.558 228.228 147.367 231.411L150.176 232.462C149.005 235.594 147.91 238.758 146.893 241.949L144.035 241.039C143.005 244.272 142.055 247.533 141.187 250.821L144.087 251.587C143.234 254.818 142.46 258.075 141.767 261.354L138.832 260.734C138.132 264.052 137.513 267.393 136.979 270.754L139.942 271.225C139.418 274.523 138.976 277.841 138.617 281.176L135.634 280.855C135.272 284.224 134.995 287.611 134.803 291.012L137.798 291.181C137.61 294.512 137.506 297.857 137.487 301.214L134.487 301.197C134.468 304.582 134.535 307.979 134.689 311.385L137.685 311.25C137.836 314.58 138.071 317.918 138.391 321.263L135.405 321.55C135.728 324.916 136.137 328.288 136.633 331.664L139.602 331.227C140.086 334.522 140.655 337.819 141.31 341.119L138.367 341.703C138.698 343.369 139.05 345.035 139.424 346.701C139.798 348.368 140.192 350.025 140.605 351.672L143.515 350.943C144.333 354.205 145.228 357.43 146.198 360.615L143.328 361.489C144.322 364.753 145.394 367.977 146.541 371.158L149.363 370.141C150.502 373.302 151.717 376.42 153.004 379.495L150.237 380.654C151.554 383.798 152.945 386.898 154.409 389.95L157.114 388.653C158.566 391.68 160.09 394.66 161.684 397.591L159.048 399.024C160.675 402.016 162.373 404.959 164.141 407.85L166.7 406.286C168.45 409.147 170.267 411.958 172.151 414.715L169.674 416.407C171.593 419.218 173.58 421.974 175.631 424.674L178.02 422.859C180.047 425.528 182.139 428.141 184.292 430.698L181.997 432.63C184.187 435.231 186.44 437.774 188.753 440.257L190.948 438.212C193.231 440.663 195.573 443.054 197.971 445.385L195.88 447.537C198.317 449.905 200.811 452.211 203.359 454.453L205.341 452.201C207.854 454.412 210.421 456.561 213.039 458.645L211.17 460.992C213.827 463.107 216.536 465.156 219.293 467.138L221.044 464.702C223.761 466.655 226.526 468.541 229.337 470.36L227.707 472.879C230.556 474.723 233.452 476.497 236.39 478.202L237.895 475.606C240.788 477.284 243.724 478.893 246.7 480.43L245.322 483.095C248.336 484.652 251.39 486.138 254.482 487.549L255.728 484.82C258.768 486.209 261.846 487.525 264.958 488.768L263.846 491.554C266.994 492.811 270.178 493.993 273.393 495.1L274.369 492.263C277.528 493.35 280.719 494.363 283.938 495.299L283.1 498.179C286.354 499.126 289.636 499.995 292.945 500.786L293.642 497.868C296.89 498.644 300.164 499.343 303.46 499.964L302.904 502.912C306.233 503.539 309.584 504.087 312.955 504.555L313.367 501.583C316.673 502.042 319.998 502.422 323.341 502.721L323.073 505.709C326.444 506.012 329.832 506.234 333.234 506.374L333.358 503.376C336.69 503.514 340.036 503.571 343.395 503.548L343.416 506.548C346.797 506.524 350.19 506.419 353.593 506.232L353.428 503.237C356.755 503.053 360.091 502.79 363.434 502.445L363.742 505.43C367.103 505.083 370.47 504.655 373.841 504.145L373.392 501.179C376.684 500.68 379.98 500.102 383.278 499.443L383.867 502.384C385.531 502.051 387.196 501.698 388.861 501.325C390.526 500.951 392.182 500.559 393.829 500.148L393.103 497.237C396.367 496.424 399.594 495.538 402.783 494.581L403.645 497.455C406.911 496.475 410.138 495.423 413.324 494.3L412.327 491.471C415.496 490.354 418.625 489.166 421.711 487.909L422.843 490.688C425.999 489.403 429.111 488.047 432.178 486.623L430.915 483.902C433.961 482.488 436.962 481.006 439.916 479.458L441.308 482.115C444.325 480.534 447.293 478.885 450.211 477.171L448.692 474.584C451.586 472.884 454.43 471.12 457.222 469.292L458.865 471.803C461.713 469.939 464.508 468.011 467.249 466.022L465.487 463.594C468.202 461.624 470.862 459.593 473.467 457.503L475.344 459.843C477.997 457.714 480.593 455.525 483.131 453.279L481.142 451.033C483.652 448.811 486.104 446.532 488.496 444.198L490.591 446.346C493.024 443.972 495.397 441.542 497.706 439.06L495.51 437.016C497.792 434.563 500.012 432.058 502.167 429.503L504.46 431.437C506.652 428.84 508.778 426.192 510.837 423.496L508.453 421.675C510.486 419.013 512.452 416.305 514.351 413.551L516.821 415.254C518.749 412.457 520.608 409.615 522.396 406.731L519.846 405.15C521.61 402.305 523.304 399.417 524.925 396.491L527.549 397.945C529.195 394.974 530.768 391.964 532.266 388.916L529.574 387.593C531.05 384.59 532.452 381.551 533.779 378.478L536.533 379.667C537.879 376.55 539.148 373.399 540.339 370.217L537.529 369.166C538.701 366.033 539.796 362.87 540.812 359.679L543.67 360.589C544.7 357.356 545.65 354.094 546.519 350.807L543.618 350.041C544.472 346.809 545.245 343.553 545.938 340.274L548.873 340.893C549.574 337.575 550.192 334.235 550.726 330.874L547.763 330.403C548.287 327.105 548.73 323.787 549.088 320.452L552.071 320.773C552.433 317.403 552.711 314.017 552.902 310.616L549.907 310.447C550.095 307.116 550.199 303.771 550.218 300.414L553.218 300.431C553.237 297.045 553.17 293.649 553.017 290.243L550.02 290.378C549.869 287.048 549.635 283.71 549.314 280.365L552.3 280.078C551.977 276.712 551.568 273.34 551.072 269.964L548.104 270.4C547.619 267.106 547.051 263.808 546.396 260.509L549.338 259.925C549.008 258.259 548.655 256.593 548.281 254.926Z" stroke="white" stroke-width="6" stroke-dasharray="10 10"/>
</svg>
