<svg xmlns="http://www.w3.org/2000/svg" width="143" height="127" fill="none" viewBox="0 0 143 127"><path fill="#FCA311" fill-opacity=".15" d="M41.0711 79.7019C37.1658 75.7967 37.1658 69.465 41.0711 65.5598L81.5597 25.0712C85.4649 21.1659 91.7966 21.1659 95.7018 25.0712L135.119 64.4886C139.025 68.3938 139.025 74.7255 135.119 78.6307L94.6307 119.119C90.7254 123.025 84.3938 123.025 80.4885 119.119L41.0711 79.7019Z"/><path fill="#FDCA76" d="M7.07107 63.6394C3.16583 59.7342 3.16583 53.4025 7.07107 49.4973L49.4975 7.07089C53.4027 3.16564 59.7344 3.16564 63.6396 7.07089L106.066 49.4973C109.971 53.4025 109.971 59.7342 106.066 63.6394L63.6396 106.066C59.7344 109.971 53.4027 109.971 49.4975 106.066L7.07107 63.6394Z"/></svg>