<svg width="1376" height="883" viewBox="0 0 1376 883" fill="none" xmlns="http://www.w3.org/2000/svg">
<path d="M271.102 385.833L269.456 420.435L240.313 401.709L271.102 385.833ZM221.501 452.893L219.422 450.729L221.501 452.893ZM124.722 493.219L124.306 496.19L124.306 496.19L124.722 493.219ZM64.1788 435.49L67.0751 434.708L64.1788 435.49ZM122.332 411.218L121.11 413.958L121.11 413.958L122.332 411.218ZM202.426 459.656L200.657 462.079L202.426 459.656ZM322.646 542.74L324.268 540.217L324.268 540.217L322.646 542.74ZM465.43 623.543L464.303 626.324L464.303 626.324L465.43 623.543ZM579.555 666.531L580.268 663.617L579.555 666.531ZM666.127 663.775L665.242 660.909L666.127 663.775ZM827.435 570.18L825.306 568.066L827.435 570.18ZM880.381 481.174L883.086 482.472L880.381 481.174ZM881.967 470.052L903.629 497.084L869.387 502.328L881.967 470.052ZM884.339 479.593C883.992 480.514 883.569 481.463 883.086 482.472L877.676 479.877C878.118 478.954 878.461 478.176 878.724 477.478L884.339 479.593ZM883.086 482.472C882.337 484.033 881.595 485.596 880.857 487.158L875.431 484.597C876.173 483.025 876.921 481.452 877.676 479.877L883.086 482.472ZM876.45 496.576C874.98 499.731 873.512 502.884 872.034 506.021L866.606 503.463C868.078 500.341 869.539 497.201 871.011 494.042L876.45 496.576ZM867.516 515.452C865.979 518.594 864.412 521.719 862.8 524.819L857.477 522.051C859.062 519.004 860.606 515.924 862.126 512.816L867.516 515.452ZM857.792 534.069C856.064 537.124 854.272 540.149 852.4 543.135L847.316 539.948C849.135 537.047 850.881 534.101 852.569 531.115L857.792 534.069ZM846.547 551.944C844.523 554.812 842.403 557.637 840.172 560.412L835.497 556.652C837.644 553.981 839.688 551.257 841.645 548.484L846.547 551.944ZM833.242 568.454C832.046 569.748 830.821 571.028 829.563 572.294L825.306 568.066C826.512 566.852 827.688 565.624 828.836 564.382L833.242 568.454ZM829.563 572.294C828.324 573.542 827.071 574.78 825.806 576.009L821.626 571.705C822.865 570.501 824.092 569.288 825.306 568.066L829.563 572.294ZM818.102 583.236C815.499 585.594 812.851 587.914 810.16 590.195L806.281 585.618C808.922 583.379 811.52 581.103 814.073 578.79L818.102 583.236ZM802 596.891C799.251 599.075 796.462 601.221 793.638 603.328L790.05 598.519C792.827 596.448 795.567 594.339 798.267 592.193L802 596.891ZM785.091 609.51C782.217 611.526 779.31 613.503 776.373 615.442L773.068 610.434C775.958 608.526 778.819 606.581 781.646 604.598L785.091 609.51ZM767.495 621.128C764.513 622.982 761.503 624.797 758.47 626.572L755.439 621.394C758.427 619.645 761.391 617.857 764.328 616.032L767.495 621.128ZM749.308 631.778C746.231 633.474 743.134 635.131 740.018 636.748L737.254 631.423C740.326 629.829 743.379 628.195 746.411 626.524L749.308 631.778ZM730.608 641.486C727.449 643.028 724.275 644.53 721.088 645.991L718.587 640.537C721.73 639.096 724.861 637.614 727.976 636.094L730.608 641.486ZM711.463 650.266C708.23 651.656 704.988 653.005 701.738 654.312L699.499 648.746C702.705 647.456 705.904 646.125 709.092 644.754L711.463 650.266ZM691.921 658.127C688.624 659.364 685.322 660.558 682.018 661.709L680.044 656.044C683.303 654.908 686.561 653.73 689.814 652.509L691.921 658.127ZM672.034 665.057C670.36 665.596 668.686 666.124 667.013 666.642L665.242 660.909C666.892 660.399 668.543 659.878 670.194 659.346L672.034 665.057ZM667.013 666.642C665.222 667.195 663.442 667.72 661.672 668.215L660.055 662.437C661.772 661.957 663.5 661.447 665.242 660.909L667.013 666.642ZM650.848 670.903C647.156 671.7 643.496 672.364 639.853 672.894L638.988 666.957C642.491 666.447 646.018 665.807 649.582 665.038L650.848 670.903ZM628.728 674.102C624.997 674.366 621.272 674.489 617.536 674.47L617.567 668.47C621.15 668.488 624.723 668.371 628.303 668.117L628.728 674.102ZM606.353 673.991C602.678 673.697 598.982 673.268 595.248 672.706L596.142 666.773C599.742 667.315 603.3 667.727 606.831 668.01L606.353 673.991ZM584.273 670.694C582.474 670.307 580.665 669.891 578.843 669.445L580.268 663.617C582.037 664.05 583.792 664.453 585.534 664.828L584.273 670.694ZM578.843 669.445C577.178 669.038 575.517 668.616 573.861 668.18L575.389 662.378C577.012 662.805 578.638 663.218 580.268 663.617L578.843 669.445ZM563.974 665.402C560.696 664.426 557.434 663.4 554.186 662.332L556.061 656.632C559.259 657.684 562.468 658.693 565.687 659.652L563.974 665.402ZM544.494 659.011C541.28 657.868 538.079 656.69 534.888 655.482L537.011 649.871C540.168 651.065 543.332 652.23 546.504 653.358L544.494 659.011ZM525.358 651.787C522.194 650.532 519.039 649.255 515.891 647.963L518.169 642.412C521.299 643.697 524.432 644.965 527.57 646.209L525.358 651.787ZM506.474 644.05C503.341 642.735 500.214 641.41 497.091 640.084L499.436 634.562C502.556 635.886 505.675 637.207 508.796 638.518L506.474 644.05ZM487.728 636.103C484.606 634.776 481.487 633.454 478.368 632.143L480.694 626.612C483.823 627.928 486.949 629.253 490.074 630.581L487.728 636.103ZM468.997 628.241C467.433 627.597 465.868 626.958 464.303 626.324L466.557 620.763C468.132 621.401 469.707 622.045 471.28 622.692L468.997 628.241ZM464.303 626.324C462.702 625.675 461.109 625.018 459.522 624.353L461.842 618.819C463.406 619.475 464.978 620.123 466.557 620.763L464.303 626.324ZM450.033 620.246C446.877 618.837 443.748 617.398 440.642 615.93L443.207 610.505C446.274 611.955 449.364 613.377 452.479 614.767L450.033 620.246ZM431.348 611.418C428.26 609.881 425.194 608.316 422.148 606.727L424.923 601.407C427.938 602.98 430.97 604.527 434.022 606.047L431.348 611.418ZM413.039 601.871C410.015 600.226 407.008 598.558 404.015 596.869L406.964 591.644C409.931 593.319 412.911 594.972 415.906 596.601L413.039 601.871ZM395.071 591.737C392.103 590.007 389.146 588.259 386.198 586.493L389.282 581.346C392.21 583.1 395.146 584.837 398.092 586.553L395.071 591.737ZM377.389 581.153C374.466 579.361 371.549 577.554 368.635 575.734L371.813 570.645C374.714 572.457 377.617 574.255 380.525 576.037L377.389 581.153ZM359.926 570.255C357.034 568.423 354.144 566.58 351.252 564.73L354.486 559.676C357.372 561.523 360.254 563.36 363.137 565.186L359.926 570.255ZM342.602 559.175C339.729 557.325 336.852 555.469 333.968 553.608L337.222 548.566C340.106 550.427 342.981 552.283 345.851 554.131L342.602 559.175ZM325.339 548.041C323.903 547.116 322.465 546.19 321.024 545.263L324.268 540.217C325.711 541.144 327.152 542.071 328.589 542.998L325.339 548.041ZM321.024 545.263C319.557 544.321 318.092 543.376 316.63 542.429L319.889 537.392C321.347 538.335 322.807 539.277 324.268 540.217L321.024 545.263ZM307.866 536.725C304.949 534.815 302.039 532.897 299.135 530.973L302.448 525.971C305.344 527.89 308.245 529.801 311.153 531.705L307.866 536.725ZM290.434 525.176C287.538 523.236 284.647 521.289 281.763 519.336L285.127 514.367C288.004 516.315 290.886 518.257 293.773 520.191L290.434 525.176ZM273.12 513.454C270.244 511.487 267.372 509.513 264.506 507.533L267.915 502.596C270.775 504.571 273.639 506.539 276.508 508.502L273.12 513.454ZM255.917 501.575C253.059 499.583 250.205 497.585 247.355 495.581L250.805 490.673C253.649 492.672 256.497 494.665 259.348 496.652L255.917 501.575ZM238.816 489.555C235.974 487.541 233.136 485.522 230.3 483.497L233.787 478.614C236.617 480.635 239.45 482.65 242.285 484.659L238.816 489.555ZM221.806 477.41C218.979 475.377 216.155 473.339 213.332 471.296L216.851 466.436C219.668 468.475 222.488 470.51 225.309 472.539L221.806 477.41ZM204.878 465.157C203.47 464.132 202.063 463.106 200.657 462.079L204.195 457.233C205.6 458.259 207.005 459.284 208.41 460.307L204.878 465.157ZM200.657 462.079C199.396 461.158 198.135 460.241 196.875 459.33L200.39 454.468C201.659 455.385 202.927 456.307 204.195 457.233L200.657 462.079ZM189.272 453.9C186.721 452.101 184.167 450.324 181.606 448.572L184.994 443.62C187.58 445.39 190.158 447.183 192.73 448.996L189.272 453.9ZM173.865 443.368C171.267 441.654 168.659 439.966 166.037 438.308L169.245 433.237C171.901 434.918 174.541 436.626 177.169 438.36L173.865 443.368ZM158.115 433.412C155.457 431.811 152.783 430.24 150.088 428.702L153.062 423.491C155.8 425.053 158.516 426.648 161.212 428.274L158.115 433.412ZM141.952 424.198C139.227 422.736 136.478 421.309 133.702 419.918L136.39 414.554C139.217 415.97 142.016 417.423 144.789 418.911L141.952 424.198ZM125.337 415.881C123.936 415.231 122.527 414.59 121.11 413.958L123.553 408.478C124.998 409.122 126.435 409.776 127.864 410.439L125.337 415.881ZM121.11 413.958C119.683 413.322 118.19 412.695 116.652 412.1L118.819 406.505C120.459 407.14 122.043 407.805 123.553 408.478L121.11 413.958ZM107.538 409.185C104.42 408.419 101.302 407.915 98.2976 407.793L98.541 401.798C102.033 401.939 105.557 402.52 108.97 403.358L107.538 409.185ZM89.4411 408.784C88.0552 409.205 86.7394 409.765 85.5036 410.478L82.5052 405.28C84.1649 404.323 85.9055 403.588 87.6969 403.043L89.4411 408.784ZM85.5036 410.478C84.247 411.203 82.9361 411.966 81.6063 412.78L78.4727 407.664C79.8719 406.807 81.2381 406.012 82.5052 405.28L85.5036 410.478ZM74.4035 417.808C72.1277 419.69 70.1914 421.704 68.8145 423.867L63.7531 420.645C65.5741 417.784 68.0036 415.315 70.58 413.185L74.4035 417.808ZM66.5742 430.962C66.5628 432.127 66.7145 433.372 67.0751 434.708L61.2825 436.272C60.7856 434.431 60.5575 432.641 60.5745 430.904L66.5742 430.962ZM67.0751 434.708C67.5287 436.388 68.0537 438.067 68.6466 439.74L62.9913 441.744C62.3487 439.931 61.7775 438.105 61.2825 436.272L67.0751 434.708ZM72.8792 449.441C74.4978 452.555 76.3373 455.599 78.3702 458.533L73.4382 461.95C71.2645 458.813 69.2934 455.552 67.5553 452.208L72.8792 449.441ZM84.9505 466.887C87.3186 469.541 89.8461 472.043 92.5045 474.357L88.5657 478.883C85.7123 476.4 83.0056 473.719 80.4736 470.881L84.9505 466.887ZM100.942 480.756C103.925 482.706 107.01 484.411 110.168 485.832L107.704 491.303C104.245 489.745 100.886 487.887 97.6588 485.778L100.942 480.756ZM120.036 489.264C121.727 489.68 123.429 490.009 125.137 490.248L124.306 496.19C122.389 495.922 120.487 495.553 118.603 495.09L120.036 489.264ZM125.137 490.248C126.811 490.482 128.512 490.641 130.239 490.728L129.938 496.72C128.043 496.625 126.164 496.45 124.306 496.19L125.137 490.248ZM140.569 490.442C143.953 490.104 147.393 489.539 150.86 488.771L152.158 494.629C148.481 495.443 144.806 496.049 141.164 496.412L140.569 490.442ZM160.984 485.994C164.292 484.92 167.595 483.688 170.871 482.323L173.179 487.861C169.765 489.284 166.31 490.573 162.838 491.701L160.984 485.994ZM180.483 477.906C183.647 476.317 186.758 474.622 189.793 472.845L192.825 478.023C189.683 479.862 186.459 481.619 183.175 483.268L180.483 477.906ZM198.774 467.207C201.765 465.198 204.643 463.128 207.382 461.025L211.036 465.784C208.195 467.965 205.214 470.108 202.12 472.187L198.774 467.207ZM215.549 454.299C216.895 453.107 218.187 451.916 219.422 450.729L223.579 455.057C222.283 456.301 220.931 457.547 219.528 458.79L215.549 454.299ZM219.422 450.729C220.653 449.547 221.864 448.342 223.058 447.117L227.357 451.302C226.119 452.574 224.86 453.826 223.579 455.057L219.422 450.729ZM229.997 439.54C232.235 436.951 234.413 434.292 236.539 431.577L241.263 435.277C239.083 438.06 236.844 440.794 234.535 443.465L229.997 439.54ZM242.75 423.314C244.77 420.521 246.75 417.687 248.7 414.825L253.659 418.202C251.683 421.103 249.67 423.984 247.611 426.831L242.75 423.314ZM254.464 406.174C256.367 403.264 258.248 400.342 260.121 397.418L265.174 400.654C263.296 403.586 261.403 406.525 259.486 409.458L254.464 406.174Z" fill="black" fill-opacity="0.05"/>
<path d="M0 209.842L30.486 226.292L29.4892 191.665L0 209.842ZM148.889 179.982L150.18 182.69L148.889 179.982ZM217.416 125.628L220.069 127.029L220.069 127.029L217.416 125.628ZM220.306 40.3124L217.74 41.8673L217.74 41.8673L220.306 40.3124ZM83.6639 27.5151L85.7342 29.6863L83.6639 27.5151ZM67.977 118.197L65.1705 119.257L67.977 118.197ZM135.266 216.034L137.146 213.696L137.146 213.696L135.266 216.034ZM209.16 250.848L208.609 253.797L209.16 250.848ZM309.336 250.298L308.482 247.422L309.336 250.298ZM492.902 127.967L491.098 125.57L491.098 125.57L492.902 127.967ZM559.778 112.693L560.642 109.82L559.778 112.693ZM643.717 105.95L643.642 102.951L643.717 105.95ZM748.572 158.102L745.854 159.372L745.854 159.372L748.572 158.102ZM772.515 249.61L769.518 249.74L772.515 249.61ZM774.304 322.403L777.241 321.788L774.304 322.403ZM805.541 388.178L803.111 389.938L805.541 388.178ZM1133.18 451.064L1132.77 448.092L1133.18 451.064ZM1186.76 423.157L1152.21 425.719L1171.7 454.356L1186.76 423.157ZM14.4715 212.338C17.6783 212.195 20.877 212.031 24.0675 211.841L23.7111 205.851C20.5522 206.039 17.3833 206.203 14.2042 206.344L14.4715 212.338ZM33.6605 211.19C36.864 210.945 40.0593 210.671 43.2464 210.366L42.675 204.394C39.5277 204.695 36.3703 204.965 33.2027 205.207L33.6605 211.19ZM52.82 209.35C56.0132 208.976 59.1982 208.568 62.3749 208.121L61.5397 202.18C58.4108 202.619 55.2719 203.022 52.1227 203.391L52.82 209.35ZM71.9034 206.661C75.0759 206.133 78.2402 205.563 81.3961 204.949L80.2504 199.06C77.1498 199.663 74.0392 200.223 70.9184 200.742L71.9034 206.661ZM90.8424 202.97C93.9799 202.264 97.1091 201.511 100.23 200.706L98.7329 194.896C95.6735 195.684 92.6044 196.423 89.5256 197.116L90.8424 202.97ZM109.546 198.145C112.63 197.242 115.707 196.286 118.775 195.273L116.895 189.576C113.893 190.566 110.881 191.502 107.86 192.386L109.546 198.145ZM127.903 192.084C130.915 190.972 133.919 189.801 136.914 188.571L134.634 183.021C131.706 184.224 128.77 185.368 125.824 186.456L127.903 192.084ZM145.794 184.731C147.258 184.066 148.72 183.386 150.18 182.69L147.598 177.274C146.171 177.954 144.743 178.619 143.312 179.269L145.794 184.731ZM150.18 182.69C151.85 181.893 153.53 181.085 155.217 180.263L152.587 174.87C150.92 175.683 149.255 176.483 147.598 177.274L150.18 182.69ZM165.232 175.215C168.539 173.483 171.839 171.679 175.097 169.786L172.083 164.598C168.914 166.439 165.692 168.201 162.448 169.9L165.232 175.215ZM184.709 163.83C187.865 161.734 190.951 159.529 193.932 157.198L190.235 152.472C187.391 154.697 184.433 156.811 181.39 158.831L184.709 163.83ZM202.585 149.75C205.352 147.115 207.98 144.329 210.43 141.376L205.813 137.545C203.524 140.303 201.059 142.918 198.447 145.405L202.585 149.75ZM217.187 132.039C218.201 130.414 219.163 128.744 220.069 127.029L214.763 124.227C213.926 125.813 213.036 127.357 212.097 128.863L217.187 132.039ZM220.069 127.029C220.943 125.373 221.779 123.649 222.572 121.868L217.09 119.428C216.349 121.093 215.572 122.696 214.763 124.227L220.069 127.029ZM226.602 111.196C227.726 107.649 228.697 103.965 229.494 100.2L223.624 98.9575C222.867 102.534 221.946 106.027 220.883 109.384L226.602 111.196ZM231.313 88.984C231.74 85.2129 231.983 81.4098 232.023 77.6263L226.023 77.5633C225.986 81.1326 225.756 84.7314 225.351 88.3094L231.313 88.984ZM231.492 66.214C231.077 62.35 230.415 58.5553 229.479 54.8922L223.666 56.3786C224.525 59.7374 225.139 63.2471 225.526 66.8537L231.492 66.214ZM225.624 43.9392C224.797 42.1536 223.881 40.4228 222.871 38.7575L217.74 41.8673C218.629 43.333 219.441 44.8669 220.18 46.4619L225.624 43.9392ZM222.871 38.7575C221.99 37.3023 221.066 35.8888 220.104 34.5168L215.192 37.9626C216.078 39.2252 216.928 40.5267 217.74 41.8673L222.871 38.7575ZM213.745 26.6404C211.435 24.1441 208.978 21.8279 206.395 19.6901L202.57 24.3129C204.953 26.2846 207.216 28.4183 209.341 30.7153L213.745 26.6404ZM198.213 13.7652C195.367 11.968 192.414 10.3512 189.375 8.91221L186.808 14.3351C189.634 15.6734 192.374 17.1741 195.009 18.8381L198.213 13.7652ZM180.05 5.13636C176.886 4.0585 173.657 3.15283 170.383 2.41697L169.067 8.27092C172.137 8.96094 175.159 9.8089 178.115 10.8158L180.05 5.13636ZM160.501 0.722924C157.19 0.326407 153.854 0.0938141 150.51 0.0231493L150.383 6.02181C153.533 6.08838 156.674 6.30747 159.787 6.68034L160.501 0.722924ZM140.505 0.29287C137.177 0.54235 133.86 0.950805 130.572 1.51663L131.59 7.42971C134.689 6.89639 137.816 6.5113 140.953 6.27608L140.505 0.29287ZM120.799 3.68906C117.571 4.57321 114.391 5.61514 111.278 6.81354L113.433 12.4131C116.356 11.2878 119.346 10.3081 122.384 9.47585L120.799 3.68906ZM102.113 10.8989C99.1229 12.4254 96.2199 14.1107 93.424 15.9535L96.726 20.9632C99.3321 19.2455 102.043 17.6712 104.841 16.2426L102.113 10.8989ZM85.3511 21.9759C84.0657 23.0592 82.8124 24.1819 81.5937 25.3439L85.7342 29.6863C86.8628 28.6102 88.0247 27.5693 89.2176 26.564L85.3511 21.9759ZM81.5937 25.3439C80.3645 26.5159 79.1915 27.7563 78.0738 29.0575L82.6251 32.9671C83.619 31.8101 84.6554 30.7149 85.7342 29.6863L81.5937 25.3439ZM72.1629 37.2998C70.4633 40.1314 68.948 43.1314 67.6117 46.2542L73.1278 48.6148C74.3661 45.721 75.7596 42.9662 77.3074 40.3875L72.1629 37.2998ZM64.2241 55.6419C63.2798 58.7921 62.4896 62.0208 61.8504 65.2919L67.739 66.4426C68.3424 63.3548 69.0863 60.3175 69.9714 57.3648L64.2241 55.6419ZM60.3926 75.0975C60.0516 78.3932 59.8558 81.7004 59.803 84.9849L65.8023 85.0812C65.8522 81.9699 66.0378 78.8365 66.3607 75.7149L60.3926 75.0975ZM60.0836 94.8931C60.3312 98.2522 60.7344 101.553 61.2922 104.756L67.2032 103.727C66.6809 100.728 66.3012 97.6234 66.0674 94.452L60.0836 94.8931ZM63.5648 114.491C64.0523 116.123 64.5874 117.714 65.1705 119.257L70.7834 117.137C70.253 115.733 69.7627 114.276 69.3136 112.773L63.5648 114.491ZM65.1705 119.257C65.7612 120.82 66.3748 122.392 67.0108 123.971L72.576 121.728C71.956 120.19 71.3583 118.659 70.7834 117.137L65.1705 119.257ZM70.9881 133.282C72.3586 136.319 73.8055 139.37 75.3243 142.42L80.6953 139.746C79.2101 136.763 77.796 133.782 76.4573 130.814L70.9881 133.282ZM79.9965 151.385C81.6002 154.329 83.2673 157.262 84.9939 160.174L90.1549 157.114C88.4657 154.265 86.8345 151.395 85.2655 148.515L79.9965 151.385ZM90.3096 168.775C92.1353 171.61 94.0157 174.413 95.947 177.174L100.863 173.734C98.977 171.038 97.1392 168.298 95.354 165.526L90.3096 168.775ZM101.914 185.349C103.97 188.049 106.076 190.695 108.226 193.275L112.835 189.435C110.743 186.924 108.692 184.347 106.687 181.714L101.914 185.349ZM114.901 200.912C117.215 203.431 119.573 205.869 121.971 208.212L126.164 203.921C123.847 201.657 121.565 199.298 119.32 196.853L114.901 200.912ZM129.469 215.108C130.765 216.226 132.071 217.315 133.386 218.372L137.146 213.696C135.886 212.683 134.633 211.639 133.388 210.565L129.469 215.108ZM133.386 218.372C134.748 219.467 136.124 220.543 137.514 221.599L141.144 216.821C139.798 215.799 138.465 214.757 137.146 213.696L133.386 218.372ZM146.035 227.704C148.935 229.661 151.889 231.533 154.894 233.316L157.956 228.156C155.052 226.433 152.196 224.623 149.39 222.73L146.035 227.704ZM164.073 238.399C167.184 240.002 170.344 241.51 173.549 242.918L175.963 237.425C172.872 236.067 169.824 234.613 166.821 233.066L164.073 238.399ZM183.294 246.838C186.58 248.039 189.908 249.135 193.276 250.123L194.964 244.365C191.723 243.415 188.519 242.359 185.354 241.202L183.294 246.838ZM203.457 252.744C205.165 253.123 206.883 253.475 208.609 253.797L209.711 247.899C208.052 247.589 206.4 247.252 204.758 246.887L203.457 252.744ZM208.609 253.797C210.254 254.105 211.927 254.403 213.625 254.692L214.63 248.777C212.965 248.494 211.324 248.201 209.711 247.899L208.609 253.797ZM223.707 256.241C227.022 256.696 230.402 257.108 233.83 257.468L234.455 251.501C231.094 251.148 227.777 250.744 224.524 250.297L223.707 256.241ZM243.993 258.364C247.371 258.604 250.775 258.787 254.189 258.907L254.398 252.91C251.06 252.794 247.728 252.614 244.418 252.379L243.993 258.364ZM264.41 259.062C267.835 259.045 271.252 258.954 274.645 258.782L274.341 252.79C271.046 252.957 267.719 253.045 264.379 253.062L264.41 259.062ZM284.874 258C288.324 257.642 291.73 257.187 295.07 256.626L294.076 250.709C290.869 251.247 287.589 251.686 284.255 252.032L284.874 258ZM305.19 254.535C306.882 254.115 308.55 253.661 310.191 253.173L308.482 247.422C306.931 247.883 305.351 248.313 303.743 248.712L305.19 254.535ZM310.191 253.173C311.828 252.687 313.458 252.179 315.082 251.65L313.224 245.945C311.648 246.458 310.068 246.951 308.482 247.422L310.191 253.173ZM324.733 248.243C327.914 247.033 331.07 245.747 334.204 244.391L331.821 238.884C328.767 240.206 325.693 241.458 322.6 242.635L324.733 248.243ZM343.491 240.141C346.547 238.668 349.581 237.132 352.594 235.538L349.789 230.234C346.838 231.795 343.871 233.297 340.885 234.737L343.491 240.141ZM361.522 230.621C364.459 228.939 367.377 227.207 370.277 225.43L367.142 220.314C364.29 222.062 361.424 223.763 358.541 225.413L361.522 230.621ZM378.878 219.998C381.712 218.157 384.529 216.276 387.329 214.362L383.944 209.408C381.179 211.298 378.401 213.153 375.609 214.967L378.878 219.998ZM395.652 208.545C398.4 206.583 401.134 204.593 403.854 202.579L400.283 197.757C397.59 199.751 394.884 201.721 392.166 203.661L395.652 208.545ZM411.954 196.487C414.637 194.438 417.307 192.371 419.965 190.291L416.267 185.566C413.626 187.633 410.975 189.685 408.313 191.717L411.954 196.487ZM427.903 184.015C430.541 181.91 433.168 179.797 435.783 177.68L432.009 173.016C429.402 175.126 426.786 177.231 424.161 179.325L427.903 184.015ZM443.624 171.303C446.238 169.169 448.842 167.035 451.436 164.909L447.632 160.269C445.038 162.395 442.438 164.525 439.829 166.656L443.624 171.303ZM459.241 158.514C461.853 156.376 464.456 154.251 467.052 152.143L463.269 147.486C460.666 149.6 458.057 151.73 455.441 153.87L459.241 158.514ZM474.889 145.815C477.523 143.704 480.149 141.616 482.768 139.557L479.061 134.84C476.424 136.912 473.782 139.012 471.136 141.134L474.889 145.815ZM490.71 133.396C492.043 132.376 493.375 131.365 494.705 130.364L491.098 125.57C489.754 126.581 488.41 127.601 487.065 128.63L490.71 133.396ZM494.705 130.364C496.012 129.381 497.256 128.431 498.444 127.515L494.779 122.764C493.608 123.667 492.384 124.602 491.098 125.57L494.705 130.364ZM505.772 121.77C508.509 119.607 510.864 117.753 513.027 116.171L509.485 111.328C507.216 112.988 504.772 114.913 502.052 117.063L505.772 121.77ZM520.405 111.583C522.912 110.401 525.386 109.714 528.26 109.498L527.81 103.515C524.169 103.788 520.983 104.678 517.846 106.156L520.405 111.583ZM536.816 109.989C539.384 110.388 542.284 111.001 545.636 111.839L547.092 106.019C543.627 105.152 540.539 104.495 537.736 104.06L536.816 109.989ZM554.469 114.25C555.888 114.662 557.368 115.1 558.913 115.565L560.642 109.82C559.081 109.35 557.582 108.906 556.142 108.488L554.469 114.25ZM558.913 115.565C560.732 116.113 562.494 116.614 564.205 117.072L565.758 111.277C564.109 110.835 562.405 110.35 560.642 109.82L558.913 115.565ZM574.96 119.533C578.937 120.272 582.59 120.741 585.975 120.985L586.407 115.001C583.263 114.774 579.832 114.335 576.055 113.634L574.96 119.533ZM597.213 120.96C601.333 120.615 604.986 119.906 608.349 118.995L606.78 113.204C603.729 114.03 600.434 114.669 596.711 114.982L597.213 120.96ZM618.857 115.383C622.271 114.036 625.412 112.732 628.778 111.628L626.909 105.927C623.324 107.102 619.939 108.506 616.655 109.802L618.857 115.383ZM638.712 109.331C640.316 109.127 642.002 108.994 643.792 108.949L643.642 102.951C641.648 103.001 639.759 103.149 637.956 103.379L638.712 109.331ZM643.792 108.949C645.559 108.905 647.304 108.87 649.027 108.846L648.943 102.847C647.196 102.871 645.429 102.906 643.642 102.951L643.792 108.949ZM659.466 108.851C663.027 108.911 666.483 109.038 669.838 109.246L670.21 103.258C666.752 103.043 663.205 102.913 659.568 102.852L659.466 108.851ZM680.136 110.198C683.631 110.641 687.002 111.204 690.254 111.907L691.522 106.042C688.08 105.298 684.536 104.708 680.889 104.246L680.136 110.198ZM700.072 114.593C703.311 115.688 706.42 116.968 709.407 118.46L712.088 113.092C708.839 111.47 705.474 110.085 701.993 108.909L700.072 114.593ZM718.044 123.618C720.73 125.514 723.316 127.641 725.807 130.027L729.957 125.693C727.253 123.104 724.436 120.786 721.503 118.716L718.044 123.618ZM732.626 137.515C734.653 140.053 736.614 142.813 738.509 145.814L743.582 142.61C741.576 139.434 739.488 136.492 737.315 133.771L732.626 137.515ZM743.585 154.739C744.354 156.234 745.11 157.778 745.854 159.372L751.29 156.833C750.515 155.174 749.726 153.563 748.923 151.998L743.585 154.739ZM745.854 159.372C746.518 160.794 747.172 162.223 747.815 163.657L753.29 161.203C752.634 159.74 751.968 158.283 751.29 156.833L745.854 159.372ZM751.53 172.317C752.721 175.22 753.864 178.145 754.957 181.09L760.582 179.002C759.465 175.993 758.297 173.005 757.082 170.041L751.53 172.317ZM758.077 189.971C759.064 192.949 759.997 195.944 760.873 198.954L766.634 197.278C765.737 194.195 764.782 191.13 763.772 188.083L758.077 189.971ZM763.324 208.031C764.081 211.073 764.778 214.128 765.41 217.193L771.286 215.982C770.637 212.835 769.923 209.7 769.146 206.581L763.324 208.031ZM767.109 226.429C767.608 229.519 768.039 232.618 768.399 235.723L774.359 235.034C773.989 231.836 773.545 228.648 773.032 225.471L767.109 226.429ZM769.257 245.061C769.363 246.62 769.45 248.179 769.518 249.74L775.513 249.48C775.443 247.869 775.353 246.261 775.243 244.654L769.257 245.061ZM769.518 249.74C769.583 251.223 769.627 252.717 769.654 254.221L775.653 254.114C775.625 252.564 775.58 251.019 775.513 249.48L769.518 249.74ZM769.641 263.236C769.59 266.235 769.5 269.259 769.399 272.305L775.396 272.504C775.497 269.446 775.588 266.386 775.64 263.339L769.641 263.236ZM769.092 281.426C768.997 284.476 768.917 287.539 768.88 290.602L774.879 290.674C774.916 287.666 774.994 284.645 775.089 281.614L769.092 281.426ZM768.926 299.833C769.004 302.934 769.155 306.03 769.407 309.11L775.387 308.62C775.145 305.671 775 302.69 774.924 299.682L768.926 299.833ZM770.515 318.395C770.764 319.942 771.047 321.484 771.368 323.018L777.241 321.788C776.94 320.351 776.674 318.903 776.439 317.443L770.515 318.395ZM771.368 323.018C771.689 324.55 772.038 326.075 772.414 327.593L778.238 326.15C777.879 324.701 777.546 323.247 777.241 321.788L771.368 323.018ZM774.983 336.607C775.938 339.574 776.991 342.512 778.13 345.416L783.715 343.225C782.62 340.432 781.609 337.612 780.694 334.769L774.983 336.607ZM781.788 354.007C783.085 356.832 784.459 359.622 785.898 362.374L791.215 359.594C789.821 356.928 788.493 354.23 787.241 351.503L781.788 354.007ZM790.404 370.518C791.969 373.2 793.591 375.843 795.26 378.443L800.31 375.203C798.685 372.67 797.107 370.1 795.586 367.494L790.404 370.518ZM800.424 386.157C801.311 387.429 802.207 388.689 803.111 389.938L807.971 386.419C807.087 385.199 806.212 383.967 805.346 382.726L800.424 386.157ZM803.111 389.938C804.08 391.276 805.066 392.59 806.067 393.879L810.805 390.197C809.845 388.962 808.9 387.703 807.971 386.419L803.111 389.938ZM812.345 401.413C814.548 403.879 816.815 406.243 819.141 408.51L823.328 404.212C821.1 402.042 818.93 399.778 816.82 397.416L812.345 401.413ZM826.41 415.115C828.919 417.242 831.485 419.269 834.106 421.202L837.667 416.372C835.153 414.519 832.693 412.576 830.289 410.538L826.41 415.115ZM842.19 426.76C844.946 428.526 847.752 430.2 850.603 431.786L853.52 426.542C850.774 425.015 848.075 423.405 845.427 421.708L842.19 426.76ZM859.296 436.288C862.231 437.702 865.206 439.033 868.218 440.286L870.523 434.747C867.608 433.534 864.733 432.247 861.9 430.883L859.296 436.288ZM877.327 443.807C880.383 444.901 883.47 445.924 886.585 446.88L888.346 441.144C885.315 440.214 882.315 439.22 879.35 438.158L877.327 443.807ZM895.953 449.538C899.085 450.357 902.24 451.115 905.413 451.817L906.708 445.958C903.606 445.272 900.526 444.532 897.471 443.733L895.953 449.538ZM914.94 453.749C918.116 454.338 921.308 454.875 924.51 455.367L925.42 449.436C922.276 448.954 919.145 448.426 916.033 447.85L914.94 453.749ZM934.116 456.702C937.321 457.104 940.532 457.463 943.746 457.785L944.344 451.815C941.176 451.498 938.014 451.144 934.862 450.749L934.116 456.702ZM953.389 458.644C956.608 458.896 959.826 459.115 963.04 459.305L963.394 453.316C960.216 453.128 957.036 452.911 953.857 452.662L953.389 458.644ZM972.691 459.794C975.918 459.932 979.138 460.045 982.345 460.137L982.517 454.139C979.335 454.048 976.144 453.936 972.946 453.8L972.691 459.794ZM991.994 460.356C995.224 460.412 998.438 460.451 1001.63 460.478L1001.68 454.478C998.503 454.452 995.308 454.413 992.098 454.357L991.994 460.356ZM1011.27 460.526C1012.88 460.53 1014.48 460.531 1016.08 460.531V454.531C1014.49 454.531 1012.89 454.53 1011.28 454.526L1011.27 460.526ZM1016.08 460.531C1017.71 460.531 1019.34 460.529 1020.97 460.525L1020.96 454.525C1019.33 454.529 1017.7 454.531 1016.08 454.531V460.531ZM1030.77 460.473C1034.04 460.446 1037.31 460.408 1040.57 460.359L1040.48 454.359C1037.23 454.409 1033.98 454.446 1030.72 454.473L1030.77 460.473ZM1050.38 460.17C1053.65 460.094 1056.91 460.004 1060.18 459.898L1059.99 453.901C1056.74 454.006 1053.49 454.096 1050.24 454.172L1050.38 460.17ZM1069.99 459.529C1073.26 459.389 1076.53 459.232 1079.79 459.054L1079.47 453.063C1076.22 453.239 1072.98 453.396 1069.73 453.535L1069.99 459.529ZM1089.59 458.462C1092.86 458.243 1096.13 458.003 1099.39 457.74L1098.91 451.759C1095.67 452.02 1092.43 452.258 1089.19 452.475L1089.59 458.462ZM1109.18 456.877C1112.44 456.565 1115.7 456.228 1118.95 455.864L1118.29 449.901C1115.06 450.262 1111.84 450.596 1108.61 450.905L1109.18 456.877ZM1128.72 454.688C1130.34 454.478 1131.97 454.26 1133.59 454.035L1132.77 448.092C1131.16 448.315 1129.55 448.53 1127.95 448.737L1128.72 454.688ZM1133.59 454.035C1135.34 453.793 1137.11 453.431 1138.9 452.968L1137.39 447.16C1135.81 447.572 1134.26 447.885 1132.77 448.092L1133.59 454.035ZM1148.9 449.453C1151.97 448.125 1155.09 446.574 1158.25 444.859L1155.38 439.588C1152.35 441.237 1149.39 442.704 1146.52 443.946L1148.9 449.453ZM1167.15 439.676C1170 437.922 1172.88 436.072 1175.78 434.166L1172.48 429.154C1169.62 431.037 1166.8 432.852 1164.01 434.565L1167.15 439.676Z" fill="black" fill-opacity="0.05"/>
<path d="M979.248 347.228C960.885 328.866 960.885 299.095 979.248 280.733L1178.73 81.2474C1197.1 62.8852 1226.87 62.8852 1245.23 81.2474L1444.71 280.733C1463.08 299.095 1463.08 328.866 1444.71 347.228L1245.23 546.714C1226.87 565.076 1197.1 565.076 1178.73 546.714L979.248 347.228Z" fill="#FDCA76"/>
<path d="M979.248 426.596C960.885 408.234 960.885 378.463 979.248 360.101L1178.73 160.616C1197.1 142.253 1226.87 142.253 1245.23 160.616L1444.71 360.101C1463.08 378.463 1463.08 408.234 1444.71 426.596L1245.23 626.082C1226.87 644.444 1197.1 644.444 1178.73 626.082L979.248 426.596Z" fill="#FDCA76" fill-opacity="0.2"/>
<path d="M1255.15 545.299C1254.1 546.354 1253.01 547.344 1251.88 548.271L1253.15 549.816C1250.73 551.803 1248.17 553.513 1245.49 554.945L1244.55 553.181C1241.92 554.584 1239.19 555.708 1236.39 556.555L1236.97 558.469C1234.01 559.364 1230.98 559.961 1227.93 560.26L1227.73 558.27C1224.8 558.557 1221.84 558.557 1218.91 558.27L1218.71 560.26C1215.66 559.961 1212.63 559.364 1209.67 558.469L1210.25 556.555C1207.45 555.708 1204.72 554.584 1202.09 553.181L1201.15 554.945C1198.47 553.513 1195.91 551.803 1193.49 549.816L1194.76 548.271C1193.63 547.344 1192.54 546.353 1191.49 545.299L1187.92 541.737L1186.51 543.151L1179.39 536.027L1180.8 534.613L1173.68 527.488L1172.26 528.902L1165.14 521.778L1166.55 520.364L1159.43 513.239L1158.01 514.653L1150.89 507.529L1152.3 506.115L1145.18 498.99L1143.76 500.404L1136.64 493.28L1138.05 491.866L1130.93 484.741L1129.51 486.155L1122.39 479.031L1123.8 477.617L1116.68 470.492L1115.27 471.906L1108.14 464.782L1109.56 463.368L1102.43 456.243L1101.02 457.658L1093.89 450.533L1095.31 449.119L1088.18 441.994L1086.77 443.409L1079.64 436.284L1081.06 434.87L1073.93 427.745L1072.52 429.16L1065.39 422.035L1066.81 420.621L1059.68 413.496L1058.27 414.911L1051.15 407.786L1052.56 406.372L1045.44 399.247L1044.02 400.662L1036.9 393.537L1038.31 392.123L1031.19 384.998L1029.77 386.413L1022.65 379.288L1024.06 377.874L1016.94 370.749L1015.52 372.164L1008.4 365.039L1009.81 363.625L1002.69 356.501L1001.27 357.915L994.15 350.79L995.564 349.376L992.002 345.814C990.947 344.76 989.957 343.667 989.03 342.54L987.485 343.81C985.498 341.394 983.788 338.827 982.356 336.15L984.12 335.207C982.717 332.584 981.593 329.852 980.746 327.054L978.832 327.633C977.937 324.673 977.34 321.643 977.041 318.59L979.031 318.395C978.744 315.46 978.744 312.501 979.031 309.566L977.041 309.371C977.34 306.317 977.937 303.288 978.832 300.328L980.746 300.907C981.593 298.109 982.717 295.376 984.12 292.754L982.356 291.811C983.788 289.134 985.498 286.566 987.485 284.151L989.03 285.421C989.957 284.294 990.947 283.201 992.002 282.147L995.564 278.585L994.15 277.171L1001.27 270.046L1002.69 271.46L1009.81 264.336L1008.4 262.922L1015.52 255.797L1016.94 257.211L1024.06 250.087L1022.65 248.673L1029.77 241.548L1031.19 242.962L1038.31 235.838L1036.9 234.424L1044.02 227.299L1045.44 228.713L1052.56 221.589L1051.15 220.175L1058.27 213.05L1059.68 214.465L1066.81 207.34L1065.39 205.926L1072.52 198.801L1073.93 200.216L1081.06 193.091L1079.64 191.677L1086.77 184.552L1088.18 185.967L1095.31 178.842L1093.89 177.428L1101.02 170.303L1102.43 171.718L1109.56 164.593L1108.14 163.179L1115.27 156.054L1116.68 157.469L1123.8 150.344L1122.39 148.93L1129.51 141.805L1130.93 143.22L1138.05 136.095L1136.64 134.681L1143.76 127.556L1145.18 128.971L1152.3 121.846L1150.89 120.432L1158.01 113.308L1159.43 114.722L1166.55 107.597L1165.14 106.183L1172.26 99.0585L1173.68 100.473L1180.8 93.3483L1179.39 91.9341L1186.51 84.8096L1187.92 86.2238L1191.49 82.6616C1192.54 81.6074 1193.63 80.6168 1194.76 79.6896L1193.49 78.1451C1195.91 76.1579 1198.47 74.4483 1201.15 73.0163L1202.09 74.7798C1204.72 73.3771 1207.45 72.2525 1210.25 71.4061L1209.67 69.4917C1212.63 68.5968 1215.66 67.9999 1218.71 67.7009L1218.91 69.6914C1221.84 69.4039 1224.8 69.4039 1227.73 69.6914L1227.93 67.7009C1230.98 67.9999 1234.01 68.5968 1236.97 69.4917L1236.39 71.4061C1239.19 72.2525 1241.92 73.377 1244.55 74.7798L1245.49 73.0163C1248.17 74.4483 1250.73 76.1579 1253.15 78.1451L1251.88 79.6896C1253.01 80.6168 1254.1 81.6074 1255.15 82.6616L1258.72 86.2238L1260.13 84.8096L1267.25 91.9341L1265.84 93.3483L1272.97 100.473L1274.38 99.0586L1281.5 106.183L1280.09 107.597L1287.21 114.722L1288.63 113.308L1295.75 120.432L1294.34 121.846L1301.46 128.971L1302.88 127.556L1310 134.681L1308.59 136.095L1315.71 143.22L1317.13 141.805L1324.25 148.93L1322.84 150.344L1329.96 157.469L1331.38 156.054L1338.5 163.179L1337.09 164.593L1344.21 171.718L1345.62 170.303L1352.75 177.428L1351.33 178.842L1358.46 185.967L1359.87 184.552L1367 191.677L1365.58 193.091L1372.71 200.216L1374.12 198.801L1381.25 205.926L1379.83 207.34L1386.96 214.465L1388.37 213.05L1395.5 220.175L1394.08 221.589L1401.21 228.713L1402.62 227.299L1409.74 234.424L1408.33 235.838L1415.45 242.962L1416.87 241.548L1423.99 248.673L1422.58 250.087L1429.7 257.211L1431.12 255.797L1438.24 262.922L1436.83 264.336L1443.95 271.46L1445.37 270.046L1452.49 277.171L1451.08 278.585L1454.64 282.147C1455.69 283.201 1456.68 284.294 1457.61 285.421L1459.16 284.151C1461.14 286.566 1462.85 289.134 1464.28 291.811L1462.52 292.754C1463.92 295.376 1465.05 298.109 1465.89 300.907L1467.81 300.328C1468.7 303.288 1469.3 306.318 1469.6 309.371L1467.61 309.566C1467.9 312.501 1467.9 315.46 1467.61 318.395L1469.6 318.59C1469.3 321.643 1468.7 324.673 1467.81 327.633L1465.89 327.054C1465.05 329.852 1463.92 332.584 1462.52 335.207L1464.28 336.15C1462.85 338.827 1461.14 341.394 1459.16 343.81L1457.61 342.54C1456.68 343.667 1455.69 344.76 1454.64 345.814L1451.08 349.376L1452.49 350.79L1445.37 357.915L1443.95 356.501L1436.83 363.625L1438.24 365.039L1431.12 372.164L1429.7 370.75L1422.58 377.874L1423.99 379.288L1416.87 386.413L1415.45 384.998L1408.33 392.123L1409.74 393.537L1402.62 400.662L1401.21 399.247L1394.08 406.372L1395.5 407.786L1388.37 414.911L1386.96 413.496L1379.83 420.621L1381.25 422.035L1374.12 429.16L1372.71 427.745L1365.58 434.87L1367 436.284L1359.87 443.409L1358.46 441.994L1351.33 449.119L1352.75 450.533L1345.62 457.658L1344.21 456.243L1337.09 463.368L1338.5 464.782L1331.38 471.907L1329.96 470.492L1322.84 477.617L1324.25 479.031L1317.13 486.155L1315.71 484.741L1308.59 491.866L1310 493.28L1302.88 500.404L1301.46 498.99L1294.34 506.115L1295.75 507.529L1288.63 514.653L1287.21 513.239L1280.09 520.364L1281.5 521.778L1274.38 528.902L1272.97 527.488L1265.84 534.613L1267.25 536.027L1260.13 543.151L1258.72 541.737L1255.15 545.299Z" stroke="#FDCA76" stroke-width="4" stroke-miterlimit="8.2289" stroke-dasharray="10 10"/>
<path d="M1247.48 634.855C1245.06 636.842 1242.5 638.552 1239.82 639.984L1241.24 642.629C1238.32 644.189 1235.28 645.439 1232.17 646.38L1231.3 643.508C1228.34 644.403 1225.31 645 1222.26 645.299L1222.55 648.285C1219.29 648.604 1216.01 648.604 1212.75 648.285L1213.04 645.299C1209.99 645 1206.96 644.403 1204 643.508L1203.13 646.38C1200.02 645.439 1196.98 644.189 1194.07 642.629L1195.48 639.984C1192.8 638.552 1190.24 636.842 1187.82 634.855L1185.92 637.172C1184.66 636.142 1183.45 635.043 1182.28 633.874L1178.72 630.312L1180.84 628.19L1173.72 621.066L1171.59 623.187L1164.47 616.063L1166.59 613.941L1159.47 606.817L1157.35 608.938L1150.22 601.814L1152.34 599.692L1145.22 592.568L1143.1 594.689L1135.97 587.565L1138.09 585.443L1130.97 578.319L1128.85 580.44L1121.72 573.316L1123.84 571.195L1116.72 564.07L1114.6 566.191L1107.47 559.067L1109.6 556.946L1102.47 549.821L1100.35 551.942L1093.23 544.818L1095.35 542.697L1088.22 535.572L1086.1 537.693L1078.98 530.569L1081.1 528.448L1073.97 521.323L1071.85 523.444L1064.73 516.32L1066.85 514.199L1059.72 507.074L1057.6 509.195L1050.48 502.071L1052.6 499.95L1045.48 492.825L1043.35 494.947L1036.23 487.822L1038.35 485.701L1031.23 478.576L1029.11 480.698L1021.98 473.573L1024.1 471.452L1016.98 464.327L1014.86 466.449L1007.73 459.324L1009.85 457.203L1002.73 450.078L1000.61 452.2L993.483 445.075L995.604 442.954L988.48 435.829L986.358 437.951L982.796 434.388C981.627 433.22 980.528 432.007 979.498 430.755L981.815 428.849C979.828 426.434 978.118 423.866 976.686 421.189L974.041 422.604C972.481 419.688 971.231 416.651 970.29 413.54L973.162 412.672C972.267 409.712 971.67 406.682 971.371 403.629L968.385 403.921C968.066 400.662 968.066 397.377 968.385 394.118L971.371 394.41C971.67 391.357 972.267 388.327 973.162 385.367L970.29 384.499C971.231 381.389 972.481 378.351 974.041 375.435L976.686 376.85C978.118 374.173 979.828 371.606 981.815 369.19L979.498 367.284C980.528 366.032 981.627 364.819 982.796 363.651L986.358 360.088L988.48 362.21L995.604 355.085L993.483 352.964L1000.61 345.839L1002.73 347.961L1009.85 340.836L1007.73 338.715L1014.86 331.59L1016.98 333.712L1024.1 326.587L1021.98 324.466L1029.11 317.341L1031.23 319.463L1038.35 312.338L1036.23 310.217L1043.35 303.093L1045.48 305.214L1052.6 298.089L1050.48 295.968L1057.6 288.844L1059.72 290.965L1066.85 283.84L1064.73 281.719L1071.85 274.595L1073.97 276.716L1081.1 269.591L1078.98 267.47L1086.1 260.346L1088.22 262.467L1095.35 255.342L1093.23 253.221L1100.35 246.097L1102.47 248.218L1109.6 241.093L1107.47 238.972L1114.6 231.848L1116.72 233.969L1123.84 226.845L1121.72 224.723L1128.85 217.599L1130.97 219.72L1138.09 212.596L1135.97 210.474L1143.1 203.35L1145.22 205.471L1152.34 198.347L1150.22 196.225L1157.35 189.101L1159.47 191.222L1166.59 184.098L1164.47 181.976L1171.59 174.852L1173.72 176.973L1180.84 169.849L1178.72 167.727L1182.28 164.165C1183.45 162.996 1184.66 161.897 1185.92 160.867L1187.82 163.184C1190.24 161.197 1192.8 159.487 1195.48 158.055L1194.07 155.41C1196.98 153.85 1200.02 152.6 1203.13 151.659L1204 154.531C1206.96 153.636 1209.99 153.039 1213.04 152.74L1212.75 149.754C1216.01 149.435 1219.29 149.435 1222.55 149.754L1222.26 152.74C1225.31 153.039 1228.34 153.636 1231.3 154.531L1232.17 151.659C1235.28 152.6 1238.32 153.85 1241.24 155.41L1239.82 158.055C1242.5 159.487 1245.06 161.197 1247.48 163.184L1249.39 160.867C1250.64 161.897 1251.85 162.996 1253.02 164.165L1256.58 167.727L1254.46 169.849L1261.58 176.973L1263.71 174.852L1270.83 181.976L1268.71 184.098L1275.83 191.222L1277.96 189.101L1285.08 196.225L1282.96 198.347L1290.08 205.471L1292.2 203.35L1299.33 210.474L1297.21 212.596L1304.33 219.72L1306.45 217.599L1313.58 224.723L1311.46 226.845L1318.58 233.969L1320.7 231.848L1327.83 238.972L1325.71 241.093L1332.83 248.218L1334.95 246.097L1342.08 253.221L1339.95 255.342L1347.08 262.467L1349.2 260.346L1356.32 267.47L1354.2 269.591L1361.33 276.716L1363.45 274.595L1370.57 281.719L1368.45 283.84L1375.58 290.965L1377.7 288.844L1384.82 295.968L1382.7 298.089L1389.83 305.214L1391.95 303.093L1399.07 310.217L1396.95 312.338L1404.07 319.463L1406.2 317.341L1413.32 324.466L1411.2 326.587L1418.32 333.712L1420.44 331.59L1427.57 338.715L1425.45 340.836L1432.57 347.961L1434.69 345.839L1441.82 352.964L1439.7 355.085L1446.82 362.21L1448.94 360.088L1452.51 363.651C1453.67 364.819 1454.77 366.032 1455.8 367.284L1453.49 369.19C1455.47 371.606 1457.18 374.173 1458.61 376.85L1461.26 375.435C1462.82 378.351 1464.07 381.389 1465.01 384.499L1462.14 385.367C1463.03 388.327 1463.63 391.357 1463.93 394.41L1466.92 394.118C1467.24 397.377 1467.24 400.662 1466.92 403.921L1463.93 403.629C1463.63 406.682 1463.03 409.712 1462.14 412.672L1465.01 413.54C1464.07 416.651 1462.82 419.688 1461.26 422.604L1458.61 421.189C1457.18 423.866 1455.47 426.434 1453.49 428.849L1455.8 430.755C1454.77 432.007 1453.67 433.22 1452.51 434.388L1448.94 437.951L1446.82 435.829L1439.7 442.954L1441.82 445.075L1434.69 452.2L1432.57 450.078L1425.45 457.203L1427.57 459.324L1420.44 466.449L1418.32 464.327L1411.2 471.452L1413.32 473.573L1406.2 480.698L1404.07 478.576L1396.95 485.701L1399.07 487.822L1391.95 494.947L1389.83 492.825L1382.7 499.95L1384.82 502.071L1377.7 509.195L1375.58 507.074L1368.45 514.199L1370.57 516.32L1363.45 523.444L1361.33 521.323L1354.2 528.448L1356.32 530.569L1349.2 537.693L1347.08 535.572L1339.95 542.697L1342.08 544.818L1334.95 551.942L1332.83 549.821L1325.71 556.946L1327.83 559.067L1320.7 566.191L1318.58 564.07L1311.46 571.195L1313.58 573.316L1306.45 580.44L1304.33 578.319L1297.21 585.444L1299.33 587.565L1292.2 594.689L1290.08 592.568L1282.96 599.692L1285.08 601.814L1277.96 608.938L1275.83 606.817L1268.71 613.941L1270.83 616.063L1263.71 623.187L1261.58 621.066L1254.46 628.19L1256.58 630.312L1253.02 633.874C1251.85 635.043 1250.64 636.142 1249.39 637.172L1247.48 634.855Z" stroke="#FFF4E4" stroke-width="6" stroke-miterlimit="16" stroke-dasharray="10 10"/>
</svg>
