<svg width="429" height="485" viewBox="0 0 429 485" fill="none" xmlns="http://www.w3.org/2000/svg">
<path d="M30.641 230.769C16.4799 216.608 16.4799 193.648 30.641 179.487L184.487 25.6411C198.648 11.4799 221.608 11.4799 235.769 25.6411L389.615 179.487C403.776 193.648 403.776 216.608 389.615 230.769L235.769 384.615C221.608 398.776 198.648 398.776 184.487 384.615L30.641 230.769Z" fill="#FDCA76"/>
<path d="M30.641 291.979C16.4799 277.818 16.4799 254.858 30.641 240.697L184.487 86.851C198.648 72.6899 221.608 72.6899 235.769 86.851L389.615 240.697C403.776 254.858 403.776 277.818 389.615 291.979L235.769 445.825C221.608 459.986 198.648 459.986 184.487 445.825L30.641 291.979Z" fill="#FDCA76" fill-opacity="0.1"/>
<path d="M243.097 383.201C242.023 384.274 240.897 385.261 239.726 386.162L240.945 387.747C238.389 389.713 235.631 391.292 232.75 392.484L231.986 390.636C229.2 391.788 226.293 392.558 223.344 392.944L223.604 394.927C220.462 395.338 217.278 395.338 214.136 394.927L214.396 392.944C211.447 392.558 208.54 391.788 205.754 390.636L204.99 392.484C202.109 391.292 199.351 389.713 196.795 387.747L198.014 386.162C196.843 385.261 195.717 384.274 194.643 383.201L191.147 379.704L189.733 381.118L182.74 374.125L184.154 372.711L177.161 365.718L175.747 367.132L168.754 360.139L170.168 358.725L163.175 351.732L161.761 353.146L154.768 346.153L156.182 344.739L149.189 337.746L147.775 339.16L140.782 332.167L142.196 330.753L135.203 323.76L133.789 325.174L126.796 318.181L128.21 316.767L121.217 309.774L119.803 311.188L112.81 304.195L114.224 302.781L107.231 295.788L105.817 297.202L98.8236 290.209L100.238 288.795L93.2449 281.802L91.8306 283.216L84.8376 276.223L86.2519 274.809L79.2589 267.816L77.8447 269.23L70.8517 262.237L72.2659 260.823L65.2729 253.83L63.8587 255.244L56.8657 248.251L58.2799 246.837L51.2869 239.844L49.8727 241.258L42.8797 234.265L44.2939 232.851L40.7974 229.355C39.7237 228.281 38.7367 227.154 37.8362 225.984L36.2509 227.203C34.2847 224.647 32.7056 221.889 31.5138 219.008L33.3618 218.244C32.2095 215.458 31.44 212.551 31.0539 209.602L29.0708 209.862C28.6595 206.72 28.6595 203.536 29.0708 200.394L31.0539 200.654C31.44 197.705 32.2095 194.798 33.3618 192.012L31.5138 191.248C32.7056 188.367 34.2847 185.609 36.2509 183.053L37.8362 184.272C38.7367 183.101 39.7237 181.975 40.7974 180.901L44.2939 177.405L42.8797 175.99L49.8727 168.997L51.2869 170.412L58.2799 163.419L56.8657 162.004L63.8587 155.011L65.2729 156.426L72.2659 149.433L70.8516 148.018L77.8446 141.025L79.2589 142.44L86.2518 135.447L84.8376 134.032L91.8306 127.039L93.2448 128.454L100.238 121.461L98.8236 120.046L105.817 113.053L107.231 114.468L114.224 107.475L112.81 106.061L119.803 99.0675L121.217 100.482L128.21 93.4887L126.796 92.0745L133.789 85.0815L135.203 86.4957L142.196 79.5027L140.782 78.0885L147.775 71.0955L149.189 72.5097L156.182 65.5167L154.768 64.1025L161.761 57.1095L163.175 58.5238L170.168 51.5308L168.754 50.1165L175.747 43.1235L177.161 44.5378L184.154 37.5448L182.74 36.1306L189.733 29.1376L191.147 30.5518L194.643 27.0553C195.717 25.9815 196.843 24.9946 198.014 24.0941L196.795 22.5088C199.351 20.5426 202.109 18.9635 204.99 17.7717L205.754 19.6197C208.54 18.4673 211.447 17.6978 214.396 17.3117L214.136 15.3287C217.278 14.9174 220.462 14.9174 223.604 15.3287L223.344 17.3117C226.293 17.6979 229.2 18.4673 231.986 19.6197L232.75 17.7716C235.631 18.9635 238.389 20.5426 240.945 22.5088L239.726 24.0941C240.897 24.9946 242.023 25.9815 243.097 27.0553L246.593 30.5518L248.008 29.1375L255.001 36.1305L253.586 37.5448L260.579 44.5378L261.993 43.1235L268.986 50.1165L267.572 51.5307L274.565 58.5237L275.979 57.1095L282.972 64.1025L281.558 65.5167L288.551 72.5097L289.965 71.0955L296.958 78.0885L295.544 79.5027L302.537 86.4957L303.951 85.0815L310.944 92.0745L309.53 93.4887L316.523 100.482L317.937 99.0675L324.93 106.06L323.516 107.475L330.509 114.468L331.923 113.053L338.916 120.046L337.502 121.461L344.495 128.454L345.909 127.039L352.902 134.032L351.488 135.447L358.481 142.44L359.895 141.025L366.888 148.018L365.474 149.433L372.467 156.426L373.881 155.011L380.874 162.004L379.46 163.419L386.453 170.412L387.867 168.997L394.86 175.99L393.446 177.405L396.943 180.901C398.016 181.975 399.003 183.101 399.904 184.272L401.489 183.053C403.455 185.609 405.034 188.367 406.226 191.248L404.378 192.012C405.531 194.798 406.3 197.705 406.686 200.654L408.669 200.394C409.081 203.535 409.081 206.72 408.669 209.862L406.686 209.602C406.3 212.551 405.531 215.458 404.378 218.244L406.226 219.008C405.034 221.889 403.455 224.647 401.489 227.203L399.904 225.984C399.003 227.154 398.016 228.281 396.943 229.355L393.446 232.851L394.86 234.265L387.867 241.258L386.453 239.844L379.46 246.837L380.874 248.251L373.881 255.244L372.467 253.83L365.474 260.823L366.888 262.237L359.895 269.23L358.481 267.816L351.488 274.809L352.902 276.223L345.909 283.216L344.495 281.802L337.502 288.795L338.916 290.209L331.923 297.202L330.509 295.788L323.516 302.781L324.93 304.195L317.937 311.188L316.523 309.774L309.53 316.767L310.944 318.181L303.951 325.174L302.537 323.76L295.544 330.753L296.958 332.167L289.965 339.16L288.551 337.746L281.558 344.739L282.973 346.153L275.98 353.146L274.565 351.732L267.572 358.725L268.987 360.139L261.994 367.132L260.579 365.718L253.586 372.711L255.001 374.125L248.008 381.118L246.593 379.704L243.097 383.201Z" stroke="#FDCA76" stroke-width="4" stroke-miterlimit="8.2289" stroke-dasharray="10 10"/>
<path d="M236.574 453.33C234.018 455.296 231.26 456.875 228.379 458.067L229.526 460.839C226.332 462.161 222.999 463.043 219.622 463.485L219.233 460.51C216.091 460.921 212.907 460.921 209.765 460.51L209.376 463.485C205.999 463.043 202.666 462.161 199.472 460.839L200.619 458.067C197.738 456.875 194.98 455.296 192.424 453.33L190.595 455.708C189.253 454.676 187.964 453.546 186.737 452.319L183.24 448.823L185.361 446.701L178.368 439.708L176.247 441.83L169.254 434.837L171.375 432.715L164.382 425.722L162.261 427.844L155.268 420.851L157.389 418.729L150.397 411.736L148.275 413.858L141.282 406.865L143.404 404.743L136.411 397.75L134.289 399.872L127.296 392.879L129.418 390.757L122.425 383.764L120.303 385.886L113.31 378.893L115.432 376.771L108.439 369.778L106.317 371.9L99.3242 364.907L101.446 362.785L94.4525 355.792L92.3312 357.914L85.3382 350.921L87.4595 348.799L80.4665 341.806L78.3452 343.928L71.3522 336.935L73.4736 334.813L66.4806 327.82L64.3592 329.942L57.3662 322.949L59.4876 320.827L52.4946 313.834L50.3733 315.956L43.3803 308.963L45.5016 306.841L38.5086 299.848L36.3873 301.97L32.8908 298.473C31.6637 297.246 30.534 295.957 29.502 294.615L31.8799 292.786C29.9136 290.23 28.3345 287.472 27.1427 284.591L24.3706 285.738C23.0488 282.544 22.1673 279.211 21.7251 275.834L24.6997 275.445C24.2884 272.303 24.2884 269.119 24.6997 265.977L21.7251 265.588C22.1673 262.211 23.0488 258.878 24.3706 255.684L27.1427 256.831C28.3345 253.95 29.9136 251.192 31.8798 248.636L29.502 246.807C30.534 245.465 31.6637 244.176 32.8908 242.949L36.3873 239.452L38.5086 241.573L45.5016 234.58L43.3802 232.459L50.3732 225.466L52.4946 227.587L59.4876 220.594L57.3662 218.473L64.3592 211.48L66.4805 213.601L73.4735 206.608L71.3522 204.487L78.3452 197.494L80.4665 199.615L87.4595 192.622L85.3382 190.501L92.3312 183.508L94.4525 185.629L101.446 178.636L99.3242 176.515L106.317 169.522L108.439 171.644L115.432 164.651L113.31 162.529L120.303 155.536L122.424 157.658L129.417 150.665L127.296 148.543L134.289 141.55L136.41 143.672L143.403 136.679L141.282 134.557L148.275 127.564L150.396 129.686L157.389 122.693L155.268 120.571L162.261 113.578L164.382 115.7L171.375 108.707L169.254 106.585L176.247 99.5922L178.368 101.714L185.361 94.7206L183.24 92.5992L186.737 89.1027C187.964 87.8757 189.253 86.746 190.595 85.714L192.424 88.0918C194.98 86.1256 197.738 84.5465 200.619 83.3547L199.472 80.5826C202.666 79.2608 205.999 78.3792 209.376 77.9371L209.765 80.9117C212.907 80.5004 216.091 80.5004 219.233 80.9117L219.622 77.9371C222.999 78.3792 226.332 79.2608 229.526 80.5825L228.379 83.3546C231.26 84.5465 234.018 86.1256 236.574 88.0918L238.403 85.7139C239.745 86.746 241.034 87.8757 242.261 89.1027L245.758 92.5992L243.636 94.7206L250.629 101.714L252.751 99.5922L259.744 106.585L257.622 108.707L264.615 115.7L266.737 113.578L273.73 120.571L271.608 122.693L278.601 129.686L280.723 127.564L287.716 134.557L285.594 136.679L292.587 143.672L294.709 141.55L301.702 148.543L299.58 150.665L306.573 157.658L308.695 155.536L315.688 162.529L313.566 164.65L320.559 171.643L322.681 169.522L329.674 176.515L327.552 178.636L334.545 185.629L336.667 183.508L343.66 190.501L341.538 192.622L348.531 199.615L350.653 197.494L357.646 204.487L355.524 206.608L362.517 213.601L364.639 211.48L371.632 218.473L369.51 220.594L376.503 227.587L378.625 225.466L385.618 232.459L383.496 234.58L390.489 241.573L392.611 239.452L396.107 242.949C397.334 244.176 398.464 245.465 399.496 246.806L397.118 248.636C399.084 251.192 400.663 253.95 401.855 256.831L404.627 255.684C405.949 258.878 406.831 262.21 407.273 265.588L404.298 265.977C404.709 269.119 404.709 272.303 404.298 275.445L407.273 275.834C406.831 279.211 405.949 282.544 404.627 285.738L401.855 284.591C400.663 287.472 399.084 290.23 397.118 292.786L399.496 294.615C398.464 295.957 397.334 297.246 396.107 298.473L392.611 301.97L390.489 299.848L383.496 306.841L385.618 308.963L378.625 315.956L376.503 313.834L369.51 320.827L371.632 322.949L364.639 329.942L362.517 327.82L355.524 334.813L357.646 336.935L350.653 343.928L348.531 341.806L341.538 348.799L343.66 350.921L336.667 357.914L334.545 355.792L327.552 362.785L329.674 364.907L322.681 371.9L320.559 369.778L313.566 376.771L315.688 378.893L308.695 385.886L306.573 383.764L299.58 390.757L301.702 392.879L294.709 399.872L292.587 397.75L285.594 404.743L287.716 406.865L280.723 413.858L278.601 411.736L271.608 418.729L273.73 420.851L266.737 427.844L264.615 425.722L257.622 432.715L259.744 434.837L252.751 441.83L250.629 439.708L243.636 446.701L245.758 448.823L242.261 452.319C241.034 453.546 239.745 454.676 238.403 455.708L236.574 453.33Z" stroke="#FFF4E4" stroke-width="6" stroke-miterlimit="16" stroke-dasharray="10 10"/>
</svg>
