<svg width="345" height="626" viewBox="0 0 345 626" fill="none" xmlns="http://www.w3.org/2000/svg">
<path d="M-168.752 299.228C-187.115 280.866 -187.115 251.095 -168.752 232.733L30.7331 33.2474C49.0952 14.8852 78.8661 14.8852 97.2282 33.2474L296.714 232.733C315.076 251.095 315.076 280.866 296.714 299.228L97.2283 498.714C78.8661 517.076 49.0952 517.076 30.7331 498.714L-168.752 299.228Z" fill="#FDCA76"/>
<path d="M-168.752 378.596C-187.115 360.234 -187.115 330.463 -168.752 312.101L30.7331 112.616C49.0952 94.2534 78.8661 94.2534 97.2282 112.616L296.714 312.101C315.076 330.463 315.076 360.234 296.714 378.596L97.2283 578.082C78.8661 596.444 49.0952 596.444 30.7331 578.082L-168.752 378.596Z" fill="#FDCA76" fill-opacity="0.2"/>
<path d="M107.154 497.299C106.1 498.354 105.007 499.344 103.88 500.271L105.15 501.816C102.735 503.803 100.167 505.513 97.4901 506.945L96.5467 505.181C93.9246 506.584 91.1924 507.708 88.3937 508.555L88.9726 510.469C86.0135 511.364 82.9835 511.961 79.9299 512.26L79.7349 510.27C76.7996 510.557 73.8414 510.557 70.9061 510.27L70.7112 512.26C67.6575 511.961 64.6276 511.364 61.6685 510.469L62.2474 508.555C59.4486 507.708 56.7165 506.584 54.0943 505.181L53.1509 506.945C50.474 505.513 47.9065 503.803 45.4908 501.816L46.7614 500.271C45.6343 499.344 44.5413 498.353 43.4872 497.299L39.9249 493.737L38.5107 495.151L31.3862 488.027L32.8004 486.613L25.676 479.488L24.2617 480.902L17.1372 473.778L18.5515 472.364L11.427 465.239L10.0128 466.653L2.88829 459.529L4.3025 458.115L-2.82199 450.99L-4.23621 452.404L-11.3607 445.28L-9.94647 443.866L-17.0709 436.741L-18.4852 438.155L-25.6096 431.031L-24.1954 429.617L-31.3199 422.492L-32.7341 423.906L-39.8586 416.782L-38.4444 415.368L-45.5689 408.243L-46.9831 409.658L-54.1076 402.533L-52.6933 401.119L-59.8178 393.994L-61.2321 395.409L-68.3565 388.284L-66.9423 386.87L-74.0668 379.745L-75.481 381.16L-82.6055 374.035L-81.1913 372.621L-88.3158 365.496L-89.73 366.911L-96.8545 359.786L-95.4403 358.372L-102.565 351.247L-103.979 352.662L-111.103 345.537L-109.689 344.123L-116.814 336.998L-118.228 338.413L-125.352 331.288L-123.938 329.874L-131.063 322.749L-132.477 324.164L-139.601 317.039L-138.187 315.625L-145.312 308.501L-146.726 309.915L-153.85 302.79L-152.436 301.376L-155.998 297.814C-157.053 296.76 -158.043 295.667 -158.97 294.54L-160.515 295.81C-162.502 293.394 -164.212 290.827 -165.644 288.15L-163.88 287.207C-165.283 284.584 -166.407 281.852 -167.254 279.054L-169.168 279.633C-170.063 276.673 -170.66 273.643 -170.959 270.59L-168.969 270.395C-169.256 267.46 -169.256 264.501 -168.969 261.566L-170.959 261.371C-170.66 258.317 -170.063 255.288 -169.168 252.328L-167.254 252.907C-166.407 250.109 -165.283 247.376 -163.88 244.754L-165.644 243.811C-164.212 241.134 -162.502 238.566 -160.515 236.151L-158.97 237.421C-158.043 236.294 -157.053 235.201 -155.998 234.147L-152.436 230.585L-153.85 229.171L-146.726 222.046L-145.312 223.46L-138.187 216.336L-139.601 214.922L-132.477 207.797L-131.063 209.211L-123.938 202.087L-125.352 200.673L-118.228 193.548L-116.814 194.962L-109.689 187.838L-111.103 186.424L-103.979 179.299L-102.565 180.713L-95.4403 173.589L-96.8545 172.175L-89.73 165.05L-88.3158 166.465L-81.1913 159.34L-82.6055 157.926L-75.481 150.801L-74.0668 152.216L-66.9423 145.091L-68.3566 143.677L-61.2321 136.552L-59.8179 137.967L-52.6934 130.842L-54.1076 129.428L-46.9831 122.303L-45.5689 123.718L-38.4444 116.593L-39.8586 115.179L-32.7341 108.054L-31.3199 109.469L-24.1954 102.344L-25.6096 100.93L-18.4852 93.8055L-17.071 95.2197L-9.94645 88.0952L-11.3607 86.681L-4.23618 79.5565L-2.82197 80.9707L4.30251 73.8462L2.88829 72.432L10.0128 65.3075L11.427 66.7217L18.5515 59.5972L17.1373 58.183L24.2618 51.0585L25.676 52.4727L32.8005 45.3483L31.3862 43.9341L38.5107 36.8096L39.9249 38.2238L43.4871 34.6616C44.5413 33.6074 45.6343 32.6168 46.7614 31.6896L45.4908 30.1451C47.9065 28.1579 50.474 26.4483 53.1509 25.0163L54.0943 26.7798C56.7165 25.3771 59.4486 24.2525 62.2473 23.4061L61.6684 21.4917C64.6276 20.5968 67.6575 19.9999 70.7111 19.7009L70.9061 21.6914C73.8414 21.4039 76.7996 21.4039 79.7349 21.6914L79.9298 19.7009C82.9835 19.9999 86.0134 20.5968 88.9726 21.4917L88.3937 23.4061C91.1924 24.2525 93.9245 25.377 96.5467 26.7798L97.4901 25.0163C100.167 26.4483 102.735 28.1579 105.15 30.1451L103.88 31.6896C105.007 32.6168 106.1 33.6074 107.154 34.6616L110.716 38.2238L112.13 36.8096L119.255 43.9341L117.841 45.3483L124.965 52.4728L126.379 51.0586L133.504 58.183L132.09 59.5973L139.214 66.7217L140.628 65.3075L147.753 72.432L146.339 73.8462L153.463 80.9707L154.877 79.5565L162.002 86.681L160.587 88.0952L167.712 95.2197L169.126 93.8055L176.251 100.93L174.836 102.344L181.961 109.469L183.375 108.054L190.5 115.179L189.085 116.593L196.21 123.718L197.624 122.303L204.749 129.428L203.334 130.842L210.459 137.967L211.873 136.552L218.998 143.677L217.583 145.091L224.708 152.216L226.122 150.801L233.247 157.926L231.832 159.34L238.957 166.465L240.371 165.05L247.496 172.175L246.081 173.589L253.206 180.713L254.62 179.299L261.745 186.424L260.33 187.838L267.455 194.962L268.869 193.548L275.993 200.673L274.579 202.087L281.704 209.211L283.118 207.797L290.242 214.922L288.828 216.336L295.953 223.46L297.367 222.046L304.491 229.171L303.077 230.585L306.639 234.147C307.694 235.201 308.684 236.294 309.611 237.421L311.156 236.151C313.143 238.566 314.853 241.134 316.285 243.811L314.521 244.754C315.924 247.376 317.049 250.109 317.895 252.907L319.809 252.328C320.704 255.288 321.301 258.318 321.6 261.371L319.61 261.566C319.897 264.501 319.897 267.46 319.61 270.395L321.6 270.59C321.301 273.643 320.704 276.673 319.809 279.633L317.895 279.054C317.049 281.852 315.924 284.584 314.521 287.207L316.285 288.15C314.853 290.827 313.143 293.394 311.156 295.81L309.611 294.54C308.684 295.667 307.694 296.76 306.639 297.814L303.077 301.376L304.491 302.79L297.367 309.915L295.953 308.501L288.828 315.625L290.242 317.039L283.118 324.164L281.704 322.75L274.579 329.874L275.993 331.288L268.869 338.413L267.455 336.998L260.33 344.123L261.744 345.537L254.62 352.662L253.206 351.247L246.081 358.372L247.496 359.786L240.371 366.911L238.957 365.496L231.832 372.621L233.247 374.035L226.122 381.16L224.708 379.745L217.583 386.87L218.998 388.284L211.873 395.409L210.459 393.994L203.334 401.119L204.749 402.533L197.624 409.658L196.21 408.243L189.085 415.368L190.5 416.782L183.375 423.907L181.961 422.492L174.836 429.617L176.251 431.031L169.126 438.155L167.712 436.741L160.587 443.866L162.002 445.28L154.877 452.404L153.463 450.99L146.339 458.115L147.753 459.529L140.628 466.653L139.214 465.239L132.09 472.364L133.504 473.778L126.379 480.902L124.965 479.488L117.841 486.613L119.255 488.027L112.13 495.151L110.716 493.737L107.154 497.299Z" stroke="#FDCA76" stroke-width="4" stroke-miterlimit="8.2289" stroke-dasharray="10 10"/>
<path d="M99.4803 586.855C97.0646 588.842 94.4971 590.552 91.8202 591.984L93.2353 594.629C90.3192 596.189 87.2816 597.439 84.1711 598.38L83.3027 595.508C80.3435 596.403 77.3136 597 74.2599 597.299L74.5523 600.285C71.2929 600.604 68.0083 600.604 64.7489 600.285L65.0412 597.299C61.9876 597 58.9577 596.403 55.9985 595.508L55.1301 598.38C52.0196 597.439 48.982 596.189 46.0659 594.629L47.481 591.984C44.8041 590.552 42.2366 588.842 39.8209 586.855L37.9151 589.172C36.6632 588.142 35.4504 587.043 34.2817 585.874L30.7194 582.312L32.8408 580.19L25.7163 573.066L23.595 575.187L16.4705 568.063L18.5918 565.941L11.4673 558.817L9.346 560.938L2.22152 553.814L4.34284 551.692L-2.78163 544.568L-4.90295 546.689L-12.0275 539.565L-9.90613 537.443L-17.0306 530.319L-19.1519 532.44L-26.2764 525.316L-24.1551 523.195L-31.2796 516.07L-33.4009 518.191L-40.5254 511.067L-38.404 508.946L-45.5285 501.821L-47.6499 503.942L-54.7743 496.818L-52.653 494.697L-59.7775 487.572L-61.8988 489.693L-69.0233 482.569L-66.902 480.448L-74.0265 473.323L-76.1478 475.444L-83.2723 468.32L-81.1509 466.199L-88.2754 459.074L-90.3968 461.195L-97.5213 454.071L-95.3999 451.95L-102.524 444.825L-104.646 446.947L-111.77 439.822L-109.649 437.701L-116.773 430.576L-118.895 432.698L-126.019 425.573L-123.898 423.452L-131.022 416.327L-133.144 418.449L-140.268 411.324L-138.147 409.203L-145.271 402.078L-147.393 404.2L-154.517 397.075L-152.396 394.954L-159.52 387.829L-161.642 389.951L-165.204 386.388C-166.373 385.22 -167.472 384.007 -168.502 382.755L-166.185 380.849C-168.172 378.434 -169.882 375.866 -171.314 373.189L-173.959 374.604C-175.519 371.688 -176.769 368.651 -177.71 365.54L-174.838 364.672C-175.733 361.712 -176.33 358.682 -176.629 355.629L-179.615 355.921C-179.934 352.662 -179.934 349.377 -179.615 346.118L-176.629 346.41C-176.33 343.357 -175.733 340.327 -174.838 337.367L-177.71 336.499C-176.769 333.389 -175.519 330.351 -173.959 327.435L-171.314 328.85C-169.882 326.173 -168.172 323.606 -166.185 321.19L-168.502 319.284C-167.472 318.032 -166.373 316.819 -165.204 315.651L-161.642 312.088L-159.52 314.21L-152.396 307.085L-154.517 304.964L-147.393 297.839L-145.271 299.961L-138.147 292.836L-140.268 290.715L-133.144 283.59L-131.022 285.712L-123.898 278.587L-126.019 276.466L-118.895 269.341L-116.773 271.463L-109.649 264.338L-111.77 262.217L-104.646 255.093L-102.524 257.214L-95.3999 250.089L-97.5212 247.968L-90.3968 240.844L-88.2754 242.965L-81.151 235.84L-83.2723 233.719L-76.1478 226.595L-74.0265 228.716L-66.902 221.591L-69.0233 219.47L-61.8988 212.346L-59.7775 214.467L-52.653 207.342L-54.7743 205.221L-47.6499 198.097L-45.5285 200.218L-38.404 193.093L-40.5254 190.972L-33.4009 183.848L-31.2796 185.969L-24.1551 178.845L-26.2764 176.723L-19.1519 169.599L-17.0306 171.72L-9.9061 164.596L-12.0274 162.474L-4.90295 155.35L-2.78163 157.471L4.34287 150.347L2.22155 148.225L9.34605 141.101L11.4674 143.222L18.5918 136.098L16.4705 133.976L23.595 126.852L25.7163 128.973L32.8408 121.849L30.7195 119.727L34.2817 116.165C35.4504 114.996 36.6632 113.897 37.915 112.867L39.8209 115.184C42.2366 113.197 44.8041 111.487 47.481 110.055L46.0659 107.41C48.9819 105.85 52.0196 104.6 55.1301 103.659L55.9985 106.531C58.9577 105.636 61.9876 105.039 65.0412 104.74L64.7489 101.754C68.0083 101.435 71.2929 101.435 74.5523 101.754L74.2599 104.74C77.3135 105.039 80.3435 105.636 83.3027 106.531L84.171 103.659C87.2816 104.6 90.3192 105.85 93.2353 107.41L91.8202 110.055C94.4971 111.487 97.0646 113.197 99.4803 115.184L101.386 112.867C102.638 113.897 103.851 114.996 105.019 116.165L108.582 119.727L106.46 121.849L113.585 128.973L115.706 126.852L122.831 133.976L120.709 136.098L127.834 143.222L129.955 141.101L137.08 148.225L134.958 150.347L142.083 157.471L144.204 155.35L151.329 162.474L149.207 164.596L156.332 171.72L158.453 169.599L165.578 176.723L163.456 178.845L170.581 185.969L172.702 183.848L179.827 190.972L177.705 193.093L184.83 200.218L186.951 198.097L194.076 205.221L191.954 207.342L199.079 214.467L201.2 212.346L208.324 219.47L206.203 221.591L213.328 228.716L215.449 226.595L222.573 233.719L220.452 235.84L227.577 242.965L229.698 240.844L236.822 247.968L234.701 250.089L241.826 257.214L243.947 255.093L251.071 262.217L248.95 264.338L256.075 271.463L258.196 269.341L265.32 276.466L263.199 278.587L270.324 285.712L272.445 283.59L279.569 290.715L277.448 292.836L284.573 299.961L286.694 297.839L293.818 304.964L291.697 307.085L298.821 314.21L300.943 312.088L304.505 315.651C305.674 316.819 306.773 318.032 307.803 319.284L305.486 321.19C307.473 323.606 309.183 326.173 310.615 328.85L313.26 327.435C314.82 330.351 316.07 333.389 317.011 336.499L314.139 337.367C315.034 340.327 315.631 343.357 315.93 346.41L318.916 346.118C319.235 349.377 319.235 352.662 318.916 355.921L315.93 355.629C315.631 358.682 315.034 361.712 314.139 364.672L317.011 365.54C316.07 368.651 314.82 371.688 313.26 374.604L310.615 373.189C309.183 375.866 307.473 378.434 305.486 380.849L307.803 382.755C306.773 384.007 305.674 385.22 304.505 386.388L300.943 389.951L298.821 387.829L291.697 394.954L293.818 397.075L286.694 404.2L284.572 402.078L277.448 409.203L279.569 411.324L272.445 418.449L270.324 416.327L263.199 423.452L265.32 425.573L258.196 432.698L256.075 430.576L248.95 437.701L251.071 439.822L243.947 446.947L241.826 444.825L234.701 451.95L236.822 454.071L229.698 461.195L227.577 459.074L220.452 466.199L222.573 468.32L215.449 475.444L213.328 473.323L206.203 480.448L208.325 482.569L201.2 489.693L199.079 487.572L191.954 494.697L194.076 496.818L186.951 503.942L184.83 501.821L177.705 508.946L179.827 511.067L172.702 518.191L170.581 516.07L163.456 523.195L165.578 525.316L158.453 532.44L156.332 530.319L149.207 537.444L151.329 539.565L144.204 546.689L142.083 544.568L134.958 551.692L137.08 553.814L129.955 560.938L127.834 558.817L120.709 565.941L122.831 568.063L115.706 575.187L113.585 573.066L106.46 580.19L108.582 582.312L105.02 585.874C103.851 587.043 102.638 588.142 101.386 589.172L99.4803 586.855Z" stroke="#FFF4E4" stroke-width="6" stroke-miterlimit="16" stroke-dasharray="10 10"/>
</svg>
